<svg width="1040" height="1040" viewBox="0 0 1040 1040" fill="none" xmlns="http://www.w3.org/2000/svg">
<circle cx="520.5" cy="520.5" r="433.5" fill="white"/>
<path fill-rule="evenodd" clip-rule="evenodd" d="M1040 520C1040 807.188 807.188 1040 520 1040C232.812 1040 0 807.188 0 520C0 232.812 232.812 0 520 0C807.188 0 1040 232.812 1040 520ZM518.541 375.481C543.058 370.925 571.055 358.597 598.041 338.131C602.93 333.986 608.593 329.418 614.567 324.6L614.57 324.597L614.577 324.592L614.58 324.589L614.581 324.589C640.411 303.754 672.041 278.241 672.041 262C672.041 242 582.466 274.5 582.466 274.5C566.089 212.743 539.798 128.365 518.541 129C486.041 129 447.041 321 447.041 321C447.041 321 446.984 321.248 446.907 321.712C440.57 356.268 460.455 375.196 491.853 377.297C500.052 377.846 509.035 377.248 518.541 375.481ZM857.333 323.447C841.083 295.301 655.306 357.526 655.306 357.526C655.306 357.526 655.063 357.6 654.622 357.766C621.528 369.556 615.078 396.241 628.957 424.483C632.581 431.858 637.591 439.338 643.874 446.687C660.078 465.642 684.753 483.724 715.97 496.861C722.009 499.025 728.802 501.647 735.967 504.414C766.926 516.366 804.837 531.002 818.902 522.882C836.222 512.882 763.289 451.557 763.289 451.557C808.583 406.496 868.511 341.539 857.333 323.447ZM727.806 556.151C727.806 556.151 874.583 685.926 858.333 714.072C848.254 732.799 762.035 713.378 700.364 696.682C700.364 696.682 683.722 790.507 666.402 780.507C652.337 772.386 646.057 732.237 640.928 699.45C639.741 691.861 638.616 684.667 637.47 678.355C633.239 644.752 636.561 614.342 644.874 590.831C648.097 581.715 652.07 573.636 656.645 566.811C674.164 540.67 700.499 532.913 727.256 555.679C727.62 555.978 727.806 556.151 727.806 556.151ZM520.542 910.25C553.042 910.25 592.042 718.25 592.042 718.25C592.042 718.25 592.098 718.003 592.175 717.538C598.512 682.982 578.628 664.055 547.229 661.953C539.031 661.404 530.048 662.002 520.542 663.769C496.024 668.325 468.027 680.653 441.042 701.119C436.149 705.267 430.481 709.839 424.502 714.661C398.672 735.496 367.042 761.009 367.042 777.25C367.042 797.25 456.617 764.75 456.617 764.75C472.994 826.507 499.284 910.885 520.542 910.25ZM323.113 542.389C317.074 540.226 310.281 537.603 303.116 534.837L303.115 534.836C272.157 522.884 234.246 508.248 220.181 516.369C202.861 526.369 275.794 587.693 275.794 587.693C230.5 632.754 170.572 697.712 181.75 715.804C198 743.95 383.777 681.724 383.777 681.724C383.777 681.724 383.798 681.718 383.84 681.704C383.879 681.692 383.935 681.673 384.008 681.648C384.121 681.609 384.273 681.555 384.461 681.484C417.555 669.694 424.005 643.01 410.126 614.767C406.502 607.393 401.492 599.912 395.209 592.563C379.005 573.609 354.33 555.527 323.113 542.389ZM398.155 339.801L398.155 339.802L398.156 339.804L398.156 339.806L398.156 339.808C399.343 347.394 400.468 354.586 401.613 360.895C405.844 394.499 402.522 424.909 394.21 448.419C390.986 457.535 387.013 465.614 382.439 472.44C364.919 498.58 338.585 506.337 311.827 483.571C311.463 483.273 311.277 483.099 311.277 483.099C311.277 483.099 164.5 353.325 180.75 325.179C190.83 306.452 277.048 325.873 338.72 342.568C338.72 342.568 355.361 248.744 372.682 258.744C386.747 266.864 393.027 307.014 398.155 339.801Z" fill="black"/>
</svg>
