<svg width="1040" height="1040" viewBox="0 0 1040 1040" fill="none" xmlns="http://www.w3.org/2000/svg">
<circle cx="520" cy="520" r="520" fill="#FAFAFA"/>
<path d="M598.041 338.131C624.074 316.062 672.041 282 672.041 262C672.041 242 582.466 274.5 582.466 274.5C591.898 310.067 598.041 338.131 598.041 338.131Z" fill="#1358AA"/>
<path fill-rule="evenodd" clip-rule="evenodd" d="M447.041 321C446.995 321.238 446.951 321.476 446.907 321.712C446.984 321.248 447.041 321 447.041 321Z" fill="#1358AA"/>
<path d="M518.541 129C486.041 129 447.041 321 447.041 321C446.995 321.238 446.951 321.476 446.907 321.712C440.571 356.268 460.455 375.196 491.854 377.298C500.052 377.846 509.035 377.248 518.541 375.481V129Z" fill="#1358AA"/>
<path d="M598.041 338.131C598.041 338.131 591.898 310.067 582.466 274.5C566.089 212.743 539.799 128.366 518.541 129V375.481C543.058 370.925 571.055 358.597 598.041 338.131Z" fill="url(#paint0_linear_507_263)"/>
<path d="M715.97 496.861C748.099 508.371 801.581 532.881 818.902 522.881C836.222 512.881 763.288 451.557 763.288 451.557C737.202 477.509 715.97 496.861 715.97 496.861Z" fill="#1358AA"/>
<path fill-rule="evenodd" clip-rule="evenodd" d="M655.306 357.526C655.077 357.605 654.849 357.685 654.622 357.766C655.063 357.6 655.306 357.526 655.306 357.526Z" fill="#1358AA"/>
<path d="M857.333 323.446C841.083 295.301 655.306 357.526 655.306 357.526C655.077 357.605 654.849 357.685 654.622 357.766C621.528 369.556 615.078 396.24 628.957 424.483C632.581 431.857 637.591 439.338 643.874 446.687L857.333 323.446Z" fill="#1358AA"/>
<path d="M715.97 496.861C715.97 496.861 737.202 477.509 763.288 451.557C808.583 406.496 868.511 341.539 857.333 323.446L643.874 446.687C660.078 465.641 684.753 483.724 715.97 496.861Z" fill="url(#paint1_linear_507_263)"/>
<path d="M637.47 678.354C643.567 711.934 649.081 770.506 666.402 780.506C683.722 790.506 700.364 696.681 700.364 696.681C664.846 687.066 637.47 678.354 637.47 678.354Z" fill="#1358AA"/>
<path fill-rule="evenodd" clip-rule="evenodd" d="M727.806 556.15C727.623 555.991 727.44 555.834 727.257 555.678C727.62 555.977 727.806 556.15 727.806 556.15Z" fill="#1358AA"/>
<path d="M858.333 714.071C874.583 685.925 727.806 556.15 727.806 556.15C727.623 555.991 727.44 555.834 727.257 555.678C700.499 532.913 674.165 540.669 656.645 566.81C652.071 573.635 648.097 581.714 644.874 590.83L858.333 714.071Z" fill="#1358AA"/>
<path d="M637.47 678.354C637.47 678.354 664.846 687.066 700.364 696.681C762.035 713.377 848.254 732.798 858.333 714.071L644.874 590.83C636.562 614.341 633.239 644.751 637.47 678.354Z" fill="url(#paint2_linear_507_263)"/>
<path d="M441.041 701.119C415.009 723.188 367.041 757.25 367.041 777.25C367.041 797.25 456.617 764.75 456.617 764.75C447.185 729.183 441.041 701.119 441.041 701.119Z" fill="#1358AA"/>
<path fill-rule="evenodd" clip-rule="evenodd" d="M592.041 718.25C592.087 718.012 592.132 717.775 592.175 717.538C592.098 718.003 592.041 718.25 592.041 718.25Z" fill="#1358AA"/>
<path d="M520.541 910.25C553.041 910.25 592.041 718.25 592.041 718.25C592.087 718.012 592.132 717.775 592.175 717.538C598.512 682.983 578.627 664.055 547.229 661.953C539.031 661.404 530.048 662.002 520.541 663.769V910.25Z" fill="#1358AA"/>
<path d="M441.041 701.119C441.041 701.119 447.185 729.183 456.617 764.75C472.993 826.507 499.284 910.885 520.541 910.25V663.769C496.024 668.325 468.027 680.653 441.041 701.119Z" fill="url(#paint3_linear_507_263)"/>
<path d="M323.113 542.389C290.984 530.879 237.502 506.369 220.181 516.369C202.861 526.369 275.795 587.693 275.795 587.693C301.881 561.741 323.113 542.389 323.113 542.389Z" fill="#1358AA"/>
<path fill-rule="evenodd" clip-rule="evenodd" d="M383.777 681.724C384.006 681.645 384.234 681.565 384.461 681.484C384.02 681.65 383.777 681.724 383.777 681.724Z" fill="#1358AA"/>
<path d="M181.75 715.804C198 743.949 383.777 681.724 383.777 681.724C384.006 681.645 384.234 681.565 384.461 681.484C417.555 669.694 424.005 643.01 410.126 614.767C406.502 607.393 401.492 599.912 395.209 592.563L181.75 715.804Z" fill="#1358AA"/>
<path d="M323.113 542.389C323.113 542.389 301.881 561.741 275.795 587.693C230.5 632.754 170.572 697.711 181.75 715.804L395.209 592.563C379.005 573.609 354.33 555.526 323.113 542.389Z" fill="url(#paint4_linear_507_263)"/>
<path d="M401.613 360.896C395.517 327.316 390.002 268.744 372.682 258.744C355.361 248.744 338.719 342.569 338.719 342.569C374.237 352.184 401.613 360.896 401.613 360.896Z" fill="#1358AA"/>
<path fill-rule="evenodd" clip-rule="evenodd" d="M311.277 483.1C311.46 483.259 311.644 483.416 311.827 483.572C311.463 483.273 311.277 483.1 311.277 483.1Z" fill="#1358AA"/>
<path d="M180.75 325.179C164.5 353.325 311.277 483.1 311.277 483.1C311.46 483.259 311.644 483.416 311.827 483.572C338.585 506.337 364.919 498.581 382.438 472.44C387.013 465.615 390.986 457.536 394.209 448.42L180.75 325.179Z" fill="#1358AA"/>
<path d="M401.613 360.896C401.613 360.896 374.237 352.184 338.719 342.569C277.048 325.873 190.829 306.452 180.75 325.179L394.209 448.42C402.522 424.909 405.844 394.499 401.613 360.896Z" fill="url(#paint5_linear_507_263)"/>
<defs>
<linearGradient id="paint0_linear_507_263" x1="558.886" y1="128.997" x2="558.886" y2="377.494" gradientUnits="userSpaceOnUse">
<stop stop-color="#A22B83"/>
<stop offset="1" stop-color="#6046CC"/>
</linearGradient>
<linearGradient id="paint1_linear_507_263" x1="877.509" y1="358.385" x2="662.303" y2="482.633" gradientUnits="userSpaceOnUse">
<stop stop-color="#A22B83"/>
<stop offset="1" stop-color="#6046CC"/>
</linearGradient>
<linearGradient id="paint2_linear_507_263" x1="838.164" y1="749.013" x2="622.958" y2="624.764" gradientUnits="userSpaceOnUse">
<stop stop-color="#A22B83"/>
<stop offset="1" stop-color="#6046CC"/>
</linearGradient>
<linearGradient id="paint3_linear_507_263" x1="480.196" y1="910.254" x2="480.196" y2="661.756" gradientUnits="userSpaceOnUse">
<stop stop-color="#A22B83"/>
<stop offset="1" stop-color="#6046CC"/>
</linearGradient>
<linearGradient id="paint4_linear_507_263" x1="161.574" y1="680.865" x2="376.78" y2="556.617" gradientUnits="userSpaceOnUse">
<stop stop-color="#A22B83"/>
<stop offset="1" stop-color="#6046CC"/>
</linearGradient>
<linearGradient id="paint5_linear_507_263" x1="200.92" y1="290.237" x2="416.125" y2="414.486" gradientUnits="userSpaceOnUse">
<stop stop-color="#A22B83"/>
<stop offset="1" stop-color="#6046CC"/>
</linearGradient>
</defs>
</svg>
