<svg width="738" height="806" viewBox="0 0 738 806" fill="none" xmlns="http://www.w3.org/2000/svg">
<path d="M368 2L296.5 194L368 256.5V2Z" fill="black"/>
<path d="M368 2V256.5C397.583 245.543 424.506 228.973 447.5 211.131L368 2Z" fill="url(#paint0_linear_431_26)"/>
<path d="M368 256.5L381 269.5C412.5 258 484.7 215 521.5 135C509.529 152.551 483.269 183.378 447.5 211.131C424.506 228.973 397.583 245.543 368 256.5Z" fill="black"/>
<path d="M368 2L296.5 194L368 256.5M368 2V256.5M368 2L447.5 211.131M368 256.5L381 269.5C412.5 258 484.7 215 521.5 135C509.529 152.551 483.269 183.378 447.5 211.131M368 256.5C397.583 245.543 424.506 228.973 447.5 211.131" stroke="black"/>
<path d="M20.75 199.935L151.277 357.855L241.153 327.185L20.75 199.935Z" fill="black"/>
<path d="M20.75 199.935L241.153 327.185C246.456 296.087 245.567 264.485 241.613 235.651L20.75 199.935Z" fill="url(#paint1_linear_431_26)"/>
<path d="M241.153 327.185L258.912 322.426C264.703 289.397 263.563 205.369 212.681 133.5C221.895 152.642 235.462 190.798 241.613 235.651C245.567 264.485 246.456 296.087 241.153 327.185Z" fill="black"/>
<path d="M20.75 199.935L151.277 357.855L241.153 327.185M20.75 199.935L241.153 327.185M20.75 199.935L241.613 235.651M241.153 327.185L258.912 322.426C264.703 289.397 263.563 205.369 212.681 133.5C221.895 152.642 235.462 190.798 241.613 235.651M241.153 327.185C246.456 296.087 245.567 264.485 241.613 235.651" stroke="black"/>
<path d="M19.75 604.685L221.777 570.605L240.153 477.435L19.75 604.685Z" fill="black"/>
<path d="M19.75 604.685L240.153 477.435C215.874 457.294 188.061 442.263 161.113 431.27L19.75 604.685Z" fill="url(#paint2_linear_431_26)"/>
<path d="M240.153 477.435L244.912 459.676C219.202 438.147 145.863 397.119 58.1814 405.25C79.3663 406.842 119.194 414.17 161.113 431.27C188.061 442.263 215.874 457.294 240.153 477.435Z" fill="black"/>
<path d="M19.75 604.685L221.777 570.605L240.153 477.435M19.75 604.685L240.153 477.435M19.75 604.685L161.113 431.27M240.153 477.435L244.912 459.676C219.202 438.147 145.863 397.119 58.1814 405.25C79.3663 406.842 119.194 414.17 161.113 431.27M240.153 477.435C215.874 457.294 188.061 442.263 161.113 431.27" stroke="black"/>
<path d="M369.5 804.5L441 612.5L369.5 550L369.5 804.5Z" fill="black"/>
<path d="M369.5 804.5L369.5 550C339.917 560.957 312.994 577.527 290 595.369L369.5 804.5Z" fill="url(#paint3_linear_431_26)"/>
<path d="M369.5 550L356.5 537C325 548.5 252.8 591.5 216 671.5C227.971 653.949 254.231 623.122 290 595.369C312.994 577.527 339.917 560.957 369.5 550Z" fill="black"/>
<path d="M369.5 804.5L441 612.5L369.5 550M369.5 804.5L369.5 550M369.5 804.5L290 595.369M369.5 550L356.5 537C325 548.5 252.8 591.5 216 671.5C227.971 653.949 254.231 623.122 290 595.369M369.5 550C339.917 560.957 312.994 577.527 290 595.369" stroke="black"/>
<path d="M717.412 606.671L586.885 448.75L497.009 479.421L717.412 606.671Z" fill="black"/>
<path d="M717.412 606.671L497.009 479.421C491.706 510.518 492.595 542.12 496.549 570.954L717.412 606.671Z" fill="url(#paint4_linear_431_26)"/>
<path d="M497.009 479.421L479.25 484.179C473.46 517.209 474.599 601.236 525.481 673.106C516.267 653.963 502.7 615.807 496.549 570.954C492.595 542.12 491.706 510.518 497.009 479.421Z" fill="black"/>
<path d="M717.412 606.671L586.885 448.75L497.009 479.421M717.412 606.671L497.009 479.421M717.412 606.671L496.549 570.954M497.009 479.421L479.25 484.179C473.46 517.209 474.599 601.236 525.481 673.106C516.267 653.963 502.7 615.807 496.549 570.954M497.009 479.421C491.706 510.518 492.595 542.12 496.549 570.954" stroke="black"/>
<path d="M718.412 199.921L516.385 234L498.009 327.171L718.412 199.921Z" fill="black"/>
<path d="M718.412 199.921L498.009 327.171C522.289 347.312 550.101 362.343 577.049 373.336L718.412 199.921Z" fill="url(#paint5_linear_431_26)"/>
<path d="M498.009 327.171L493.25 344.929C518.96 366.459 592.299 407.486 679.981 399.356C658.796 397.764 618.968 390.435 577.049 373.336C550.101 362.343 522.289 347.312 498.009 327.171Z" fill="black"/>
<path d="M718.412 199.921L516.385 234L498.009 327.171M718.412 199.921L498.009 327.171M718.412 199.921L577.049 373.336M498.009 327.171L493.25 344.929C518.96 366.459 592.299 407.486 679.981 399.356C658.796 397.764 618.968 390.435 577.049 373.336M498.009 327.171C522.289 347.312 550.101 362.343 577.049 373.336" stroke="black"/>
<defs>
<linearGradient id="paint0_linear_431_26" x1="409" y1="2" x2="409" y2="269.5" gradientUnits="userSpaceOnUse">
<stop stop-opacity="0"/>
<stop offset="1"/>
</linearGradient>
<linearGradient id="paint1_linear_431_26" x1="41.25" y1="164.428" x2="272.912" y2="298.178" gradientUnits="userSpaceOnUse">
<stop stop-opacity="0"/>
<stop offset="1"/>
</linearGradient>
<linearGradient id="paint2_linear_431_26" x1="-0.750007" y1="569.178" x2="230.912" y2="435.428" gradientUnits="userSpaceOnUse">
<stop stop-opacity="0"/>
<stop offset="1"/>
</linearGradient>
<linearGradient id="paint3_linear_431_26" x1="328.5" y1="804.5" x2="328.5" y2="537" gradientUnits="userSpaceOnUse">
<stop stop-opacity="0"/>
<stop offset="1"/>
</linearGradient>
<linearGradient id="paint4_linear_431_26" x1="696.912" y1="642.178" x2="465.25" y2="508.428" gradientUnits="userSpaceOnUse">
<stop stop-opacity="0"/>
<stop offset="1"/>
</linearGradient>
<linearGradient id="paint5_linear_431_26" x1="738.912" y1="235.428" x2="507.25" y2="369.178" gradientUnits="userSpaceOnUse">
<stop stop-opacity="0"/>
<stop offset="1"/>
</linearGradient>
</defs>
</svg>
