<svg width="2945" height="809" viewBox="0 0 2945 809" fill="none" xmlns="http://www.w3.org/2000/svg">
<g clip-path="url(#clip0_431_90)">
<path d="M915.772 78.9292V440H867.91V78.9292H915.772ZM1067.04 241.361V280.544H905.356V241.361H1067.04ZM1091.6 78.9292V118.111H905.356V78.9292H1091.6ZM1477.42 248.057V270.872C1477.42 297.985 1474.03 322.288 1467.25 343.781C1460.47 365.273 1450.72 383.541 1437.99 398.586C1425.26 413.631 1409.96 425.121 1392.11 433.056C1374.42 440.992 1354.58 444.96 1332.59 444.96C1311.26 444.96 1291.67 440.992 1273.82 433.056C1256.13 425.121 1240.75 413.631 1227.69 398.586C1214.8 383.541 1204.79 365.273 1197.68 343.781C1190.58 322.288 1187.02 297.985 1187.02 270.872V248.057C1187.02 220.944 1190.49 196.724 1197.44 175.397C1204.55 153.904 1214.55 135.636 1227.44 120.591C1240.34 105.381 1255.63 93.8085 1273.32 85.8728C1291.18 77.9372 1310.77 73.9694 1332.09 73.9694C1354.08 73.9694 1373.92 77.9372 1391.61 85.8728C1409.47 93.8085 1424.76 105.381 1437.49 120.591C1450.38 135.636 1460.22 153.904 1467 175.397C1473.94 196.724 1477.42 220.944 1477.42 248.057ZM1430.05 270.872V247.561C1430.05 226.069 1427.82 207.056 1423.35 190.524C1419.06 173.991 1412.69 160.104 1404.26 148.862C1395.83 137.62 1385.49 129.105 1373.26 123.319C1361.19 117.533 1347.47 114.639 1332.09 114.639C1317.22 114.639 1303.74 117.533 1291.67 123.319C1279.77 129.105 1269.52 137.62 1260.92 148.862C1252.49 160.104 1245.96 173.991 1241.33 190.524C1236.7 207.056 1234.39 226.069 1234.39 247.561V270.872C1234.39 292.53 1236.7 311.707 1241.33 328.405C1245.96 344.938 1252.57 358.908 1261.17 370.315C1269.93 381.557 1280.26 390.072 1292.17 395.858C1304.24 401.644 1317.71 404.538 1332.59 404.538C1348.13 404.538 1361.94 401.644 1374 395.858C1386.07 390.072 1396.24 381.557 1404.51 370.315C1412.94 358.908 1419.3 344.938 1423.6 328.405C1427.9 311.707 1430.05 292.53 1430.05 270.872ZM1599.87 78.9292H1719.4C1746.52 78.9292 1769.41 83.0623 1788.1 91.3286C1806.94 99.5949 1821.24 111.829 1831 128.031C1840.92 144.067 1845.88 163.824 1845.88 187.3C1845.88 203.833 1842.49 218.96 1835.71 232.682C1829.1 246.239 1819.51 257.811 1806.94 267.4C1794.54 276.824 1779.66 283.85 1762.3 288.479L1748.91 293.687H1636.57L1636.08 254.753H1720.89C1738.08 254.753 1752.38 251.777 1763.79 245.825C1775.2 239.708 1783.8 231.525 1789.58 221.274C1795.37 211.024 1798.26 199.699 1798.26 187.3C1798.26 173.413 1795.53 161.261 1790.08 150.846C1784.62 140.43 1776.03 132.412 1764.29 126.791C1752.72 121.005 1737.75 118.111 1719.4 118.111H1647.73V440H1599.87V78.9292ZM1810.91 440L1723.12 276.328L1772.97 276.08L1862 437.024V440H1810.91ZM2181.6 325.181H2229.22C2226.74 347.996 2220.21 368.414 2209.63 386.435C2199.04 404.455 2184.08 418.756 2164.74 429.337C2145.4 439.752 2121.26 444.96 2092.33 444.96C2071.17 444.96 2051.9 440.992 2034.55 433.056C2017.35 425.121 2002.56 413.879 1990.16 399.33C1977.76 384.616 1968.17 367.009 1961.39 346.508C1954.78 325.843 1951.47 302.863 1951.47 277.568V241.609C1951.47 216.315 1954.78 193.417 1961.39 172.917C1968.17 152.251 1977.84 134.561 1990.4 119.847C2003.13 105.133 2018.43 93.8085 2036.28 85.8728C2054.14 77.9372 2074.22 73.9694 2096.54 73.9694C2123.82 73.9694 2146.88 79.0945 2165.73 89.3447C2184.58 99.5949 2199.21 113.813 2209.63 131.999C2220.21 150.019 2226.74 170.933 2229.22 194.74H2181.6C2179.29 177.876 2174.99 163.41 2168.71 151.342C2162.42 139.108 2153.5 129.684 2141.92 123.071C2130.35 116.458 2115.22 113.152 2096.54 113.152C2080.51 113.152 2066.37 116.21 2054.14 122.327C2042.07 128.444 2031.9 137.124 2023.63 148.366C2015.53 159.608 2009.42 173.082 2005.28 188.788C2001.15 204.494 1999.08 221.936 1999.08 241.113V277.568C1999.08 295.258 2000.9 311.873 2004.54 327.413C2008.34 342.954 2014.05 356.593 2021.65 368.331C2029.26 380.07 2038.93 389.328 2050.66 396.106C2062.4 402.719 2076.29 406.026 2092.33 406.026C2112.66 406.026 2128.86 402.802 2140.93 396.354C2153 389.906 2162.09 380.648 2168.21 368.579C2174.49 356.511 2178.96 342.045 2181.6 325.181ZM2574.61 401.066V440H2383.42V401.066H2574.61ZM2393.09 78.9292V440H2345.23V78.9292H2393.09ZM2549.32 234.17V273.104H2383.42V234.17H2549.32ZM2572.13 78.9292V118.111H2383.42V78.9292H2572.13ZM2877.11 348.74C2877.11 340.309 2875.79 332.869 2873.14 326.421C2870.66 319.808 2866.2 313.857 2859.75 308.566C2853.47 303.276 2844.71 298.233 2833.46 293.439C2822.39 288.645 2808.34 283.767 2791.31 278.808C2773.45 273.517 2757.33 267.648 2742.95 261.201C2728.57 254.587 2716.25 247.065 2706 238.634C2695.75 230.202 2687.9 220.53 2682.44 209.619C2676.98 198.707 2674.26 186.225 2674.26 172.173C2674.26 158.12 2677.15 145.142 2682.94 133.239C2688.72 121.335 2696.99 111.002 2707.73 102.24C2718.65 93.3125 2731.62 86.3688 2746.67 81.409C2761.71 76.4493 2778.49 73.9694 2797.01 73.9694C2824.12 73.9694 2847.1 79.1772 2865.95 89.5927C2884.96 99.8428 2899.43 113.317 2909.35 130.015C2919.27 146.547 2924.23 164.237 2924.23 183.084H2876.61C2876.61 169.528 2873.72 157.541 2867.93 147.126C2862.15 136.545 2853.39 128.279 2841.65 122.327C2829.91 116.21 2815.03 113.152 2797.01 113.152C2779.98 113.152 2765.93 115.714 2754.85 120.839C2743.78 125.964 2735.51 132.908 2730.05 141.67C2724.76 150.432 2722.12 160.435 2722.12 171.677C2722.12 179.282 2723.69 186.225 2726.83 192.508C2730.14 198.625 2735.18 204.329 2741.96 209.619C2748.9 214.909 2757.66 219.786 2768.24 224.25C2778.99 228.714 2791.8 233.013 2806.68 237.146C2827.18 242.932 2844.87 249.38 2859.75 256.489C2874.63 263.598 2886.86 271.616 2896.45 280.544C2906.21 289.306 2913.4 299.308 2918.03 310.55C2922.82 321.627 2925.22 334.192 2925.22 348.244C2925.22 362.958 2922.24 376.267 2916.29 388.17C2910.34 400.074 2901.83 410.241 2890.75 418.673C2879.67 427.105 2866.36 433.635 2850.82 438.264C2835.45 442.728 2818.25 444.96 2799.24 444.96C2782.54 444.96 2766.09 442.645 2749.89 438.016C2733.86 433.387 2719.22 426.443 2706 417.185C2692.94 407.927 2682.44 396.519 2674.5 382.963C2666.73 369.241 2662.85 353.369 2662.85 335.349H2710.46C2710.46 347.748 2712.86 358.412 2717.65 367.339C2722.45 376.102 2728.98 383.376 2737.25 389.162C2745.68 394.949 2755.18 399.247 2765.76 402.058C2776.51 404.703 2787.67 406.026 2799.24 406.026C2815.94 406.026 2830.08 403.711 2841.65 399.082C2853.22 394.453 2861.98 387.84 2867.93 379.243C2874.05 370.646 2877.11 360.478 2877.11 348.74Z" fill="black"/>
<path d="M875.565 655.198V725.845H866.2V655.198H875.565ZM905.162 686.98V694.646H873.527V686.98H905.162ZM909.966 655.198V662.865H873.527V655.198H909.966ZM929.52 673.345V725.845H920.495V673.345H929.52ZM919.815 659.42C919.815 657.964 920.252 656.735 921.126 655.732C922.031 654.729 923.357 654.228 925.104 654.228C926.819 654.228 928.129 654.729 929.034 655.732C929.972 656.735 930.442 657.964 930.442 659.42C930.442 660.811 929.972 662.008 929.034 663.01C928.129 663.981 926.819 664.466 925.104 664.466C923.357 664.466 922.031 663.981 921.126 663.01C920.252 662.008 919.815 660.811 919.815 659.42ZM943.882 651.317H952.907V715.655L952.13 725.845H943.882V651.317ZM988.375 699.158V700.177C988.375 703.994 987.922 707.536 987.017 710.803C986.111 714.038 984.785 716.852 983.038 719.246C981.291 721.64 979.156 723.5 976.633 724.826C974.11 726.152 971.215 726.815 967.948 726.815C964.616 726.815 961.689 726.249 959.166 725.117C956.675 723.952 954.573 722.287 952.858 720.119C951.144 717.952 949.769 715.332 948.734 712.259C947.731 709.186 947.036 705.725 946.647 701.875V697.412C947.036 693.53 947.731 690.053 948.734 686.98C949.769 683.907 951.144 681.286 952.858 679.119C954.573 676.92 956.675 675.254 959.166 674.122C961.657 672.957 964.552 672.375 967.851 672.375C971.15 672.375 974.078 673.022 976.633 674.316C979.189 675.577 981.324 677.389 983.038 679.75C984.785 682.111 986.111 684.942 987.017 688.241C987.922 691.508 988.375 695.147 988.375 699.158ZM979.35 700.177V699.158C979.35 696.538 979.108 694.08 978.623 691.783C978.137 689.454 977.361 687.416 976.294 685.67C975.226 683.89 973.819 682.499 972.072 681.497C970.326 680.462 968.175 679.944 965.619 679.944C963.355 679.944 961.382 680.332 959.7 681.109C958.05 681.885 956.643 682.936 955.478 684.262C954.314 685.556 953.36 687.044 952.616 688.726C951.904 690.376 951.37 692.09 951.014 693.87V705.563C951.532 707.827 952.373 710.011 953.537 712.113C954.734 714.184 956.319 715.882 958.292 717.208C960.298 718.534 962.773 719.197 965.716 719.197C968.142 719.197 970.212 718.712 971.927 717.742C973.674 716.739 975.081 715.364 976.148 713.617C977.248 711.871 978.057 709.849 978.574 707.552C979.092 705.256 979.35 702.797 979.35 700.177ZM1021.52 726.815C1017.86 726.815 1014.54 726.201 1011.57 724.971C1008.62 723.71 1006.09 721.947 1003.95 719.683C1001.85 717.418 1000.23 714.733 999.098 711.628C997.966 708.523 997.4 705.126 997.4 701.439V699.401C997.4 695.131 998.031 691.33 999.292 687.999C1000.55 684.634 1002.27 681.788 1004.44 679.459C1006.6 677.13 1009.06 675.367 1011.81 674.17C1014.56 672.973 1017.41 672.375 1020.35 672.375C1024.1 672.375 1027.34 673.022 1030.05 674.316C1032.8 675.61 1035.05 677.421 1036.8 679.75C1038.55 682.047 1039.84 684.764 1040.68 687.901C1041.52 691.007 1041.94 694.403 1041.94 698.091V702.118H1002.74V694.791H1032.97V694.112C1032.84 691.783 1032.35 689.519 1031.51 687.319C1030.7 685.12 1029.41 683.308 1027.63 681.885C1025.85 680.462 1023.42 679.75 1020.35 679.75C1018.31 679.75 1016.44 680.187 1014.72 681.06C1013.01 681.901 1011.54 683.163 1010.31 684.845C1009.08 686.527 1008.12 688.581 1007.44 691.007C1006.76 693.433 1006.43 696.231 1006.43 699.401V701.439C1006.43 703.93 1006.76 706.275 1007.44 708.474C1008.16 710.642 1009.17 712.55 1010.5 714.2C1011.86 715.849 1013.49 717.143 1015.4 718.081C1017.34 719.019 1019.54 719.489 1022 719.489C1025.17 719.489 1027.86 718.842 1030.05 717.548C1032.25 716.254 1034.18 714.523 1035.83 712.356L1041.26 716.674C1040.13 718.389 1038.69 720.022 1036.94 721.575C1035.2 723.128 1033.05 724.389 1030.49 725.36C1027.97 726.33 1024.98 726.815 1021.52 726.815ZM1061.4 681.594V725.845H1052.42V673.345H1061.16L1061.4 681.594ZM1077.8 673.054L1077.75 681.4C1077.01 681.238 1076.29 681.141 1075.62 681.109C1074.97 681.044 1074.22 681.012 1073.38 681.012C1071.31 681.012 1069.49 681.335 1067.9 681.982C1066.32 682.629 1064.97 683.535 1063.87 684.699C1062.77 685.864 1061.9 687.255 1061.25 688.872C1060.64 690.457 1060.23 692.204 1060.04 694.112L1057.52 695.568C1057.52 692.398 1057.82 689.422 1058.44 686.64C1059.09 683.858 1060.07 681.4 1061.4 679.265C1062.73 677.098 1064.41 675.415 1066.45 674.219C1068.52 672.989 1070.97 672.375 1073.82 672.375C1074.47 672.375 1075.21 672.456 1076.05 672.617C1076.89 672.747 1077.48 672.892 1077.8 673.054ZM1166.5 688.29V692.754C1166.5 698.058 1165.83 702.814 1164.51 707.019C1163.18 711.224 1161.27 714.798 1158.78 717.742C1156.29 720.685 1153.3 722.933 1149.8 724.486C1146.34 726.039 1142.46 726.815 1138.16 726.815C1133.99 726.815 1130.15 726.039 1126.66 724.486C1123.2 722.933 1120.19 720.685 1117.63 717.742C1115.11 714.798 1113.15 711.224 1111.76 707.019C1110.37 702.814 1109.68 698.058 1109.68 692.754V688.29C1109.68 682.985 1110.36 678.246 1111.72 674.073C1113.11 669.868 1115.06 666.294 1117.59 663.35C1120.11 660.374 1123.1 658.11 1126.56 656.557C1130.06 655.004 1133.89 654.228 1138.06 654.228C1142.36 654.228 1146.25 655.004 1149.71 656.557C1153.2 658.11 1156.19 660.374 1158.68 663.35C1161.21 666.294 1163.13 669.868 1164.46 674.073C1165.82 678.246 1166.5 682.985 1166.5 688.29ZM1157.23 692.754V688.193C1157.23 683.987 1156.79 680.268 1155.92 677.033C1155.08 673.798 1153.83 671.081 1152.18 668.881C1150.53 666.682 1148.51 665.016 1146.12 663.884C1143.76 662.752 1141.07 662.185 1138.06 662.185C1135.15 662.185 1132.51 662.752 1130.15 663.884C1127.82 665.016 1125.82 666.682 1124.14 668.881C1122.49 671.081 1121.21 673.798 1120.3 677.033C1119.4 680.268 1118.94 683.987 1118.94 688.193V692.754C1118.94 696.991 1119.4 700.743 1120.3 704.01C1121.21 707.245 1122.5 709.978 1124.18 712.21C1125.9 714.41 1127.92 716.076 1130.25 717.208C1132.61 718.34 1135.25 718.906 1138.16 718.906C1141.2 718.906 1143.9 718.34 1146.26 717.208C1148.62 716.076 1150.61 714.41 1152.23 712.21C1153.88 709.978 1155.13 707.245 1155.97 704.01C1156.81 700.743 1157.23 696.991 1157.23 692.754ZM1188.14 683.438V746.029H1179.11V673.345H1187.36L1188.14 683.438ZM1223.51 699.158V700.177C1223.51 703.994 1223.05 707.536 1222.15 710.803C1221.24 714.038 1219.92 716.852 1218.17 719.246C1216.46 721.64 1214.34 723.5 1211.81 724.826C1209.29 726.152 1206.4 726.815 1203.13 726.815C1199.8 726.815 1196.85 726.265 1194.3 725.165C1191.74 724.066 1189.57 722.464 1187.8 720.362C1186.02 718.259 1184.59 715.736 1183.53 712.793C1182.49 709.849 1181.78 706.533 1181.39 702.846V697.412C1181.78 693.53 1182.51 690.053 1183.57 686.98C1184.64 683.907 1186.05 681.286 1187.8 679.119C1189.57 676.92 1191.73 675.254 1194.25 674.122C1196.77 672.957 1199.68 672.375 1202.98 672.375C1206.28 672.375 1209.21 673.022 1211.76 674.316C1214.32 675.577 1216.47 677.389 1218.22 679.75C1219.96 682.111 1221.28 684.942 1222.15 688.241C1223.05 691.508 1223.51 695.147 1223.51 699.158ZM1214.48 700.177V699.158C1214.48 696.538 1214.21 694.08 1213.66 691.783C1213.11 689.454 1212.25 687.416 1211.09 685.67C1209.95 683.89 1208.5 682.499 1206.72 681.497C1204.94 680.462 1202.82 679.944 1200.36 679.944C1198.1 679.944 1196.13 680.332 1194.44 681.109C1192.79 681.885 1191.39 682.936 1190.22 684.262C1189.06 685.556 1188.1 687.044 1187.36 688.726C1186.65 690.376 1186.11 692.09 1185.76 693.87V706.436C1186.4 708.701 1187.31 710.836 1188.48 712.841C1189.64 714.814 1191.19 716.416 1193.13 717.645C1195.07 718.842 1197.52 719.44 1200.46 719.44C1202.89 719.44 1204.97 718.939 1206.72 717.936C1208.5 716.901 1209.95 715.494 1211.09 713.715C1212.25 711.935 1213.11 709.898 1213.66 707.601C1214.21 705.272 1214.48 702.797 1214.48 700.177ZM1256.94 673.345V680.235H1228.55V673.345H1256.94ZM1238.16 660.584H1247.14V712.841C1247.14 714.62 1247.41 715.963 1247.96 716.868C1248.51 717.774 1249.22 718.373 1250.1 718.664C1250.97 718.955 1251.91 719.1 1252.91 719.1C1253.65 719.1 1254.43 719.036 1255.24 718.906C1256.08 718.745 1256.71 718.615 1257.13 718.518L1257.18 725.845C1256.47 726.071 1255.53 726.281 1254.37 726.475C1253.23 726.702 1251.86 726.815 1250.24 726.815C1248.04 726.815 1246.02 726.378 1244.18 725.505C1242.33 724.632 1240.86 723.176 1239.76 721.138C1238.69 719.068 1238.16 716.286 1238.16 712.793V660.584ZM1277.22 673.345V725.845H1268.19V673.345H1277.22ZM1267.52 659.42C1267.52 657.964 1267.95 656.735 1268.83 655.732C1269.73 654.729 1271.06 654.228 1272.8 654.228C1274.52 654.228 1275.83 654.729 1276.73 655.732C1277.67 656.735 1278.14 657.964 1278.14 659.42C1278.14 660.811 1277.67 662.008 1276.73 663.01C1275.83 663.981 1274.52 664.466 1272.8 664.466C1271.06 664.466 1269.73 663.981 1268.83 663.01C1267.95 662.008 1267.52 660.811 1267.52 659.42ZM1312.64 719.44C1314.77 719.44 1316.75 719.003 1318.56 718.13C1320.37 717.257 1321.86 716.06 1323.02 714.539C1324.19 712.987 1324.85 711.224 1325.01 709.251H1333.55C1333.39 712.356 1332.34 715.251 1330.4 717.936C1328.49 720.588 1325.98 722.739 1322.88 724.389C1319.77 726.006 1316.36 726.815 1312.64 726.815C1308.69 726.815 1305.25 726.12 1302.3 724.729C1299.39 723.338 1296.97 721.429 1295.03 719.003C1293.12 716.577 1291.68 713.795 1290.71 710.658C1289.77 707.488 1289.3 704.14 1289.3 700.614V698.576C1289.3 695.05 1289.77 691.718 1290.71 688.581C1291.68 685.411 1293.12 682.613 1295.03 680.187C1296.97 677.761 1299.39 675.852 1302.3 674.461C1305.25 673.07 1308.69 672.375 1312.64 672.375C1316.75 672.375 1320.34 673.216 1323.41 674.898C1326.48 676.548 1328.89 678.812 1330.64 681.691C1332.42 684.537 1333.39 687.772 1333.55 691.395H1325.01C1324.85 689.228 1324.24 687.271 1323.17 685.524C1322.13 683.777 1320.71 682.386 1318.9 681.351C1317.12 680.284 1315.03 679.75 1312.64 679.75C1309.89 679.75 1307.58 680.3 1305.7 681.4C1303.86 682.467 1302.39 683.923 1301.29 685.767C1300.22 687.578 1299.44 689.6 1298.96 691.832C1298.5 694.031 1298.28 696.279 1298.28 698.576V700.614C1298.28 702.911 1298.5 705.175 1298.96 707.407C1299.41 709.639 1300.17 711.66 1301.24 713.472C1302.34 715.283 1303.81 716.739 1305.65 717.839C1307.53 718.906 1309.86 719.44 1312.64 719.44ZM1369.65 655.198H1393.04C1398.34 655.198 1402.82 656.007 1406.48 657.625C1410.17 659.242 1412.96 661.636 1414.87 664.806C1416.81 667.943 1417.78 671.809 1417.78 676.402C1417.78 679.637 1417.12 682.597 1415.79 685.281C1414.5 687.934 1412.62 690.198 1410.17 692.074C1407.74 693.918 1404.83 695.293 1401.43 696.199L1398.81 697.217H1376.83L1376.74 689.6H1393.33C1396.69 689.6 1399.49 689.017 1401.72 687.853C1403.96 686.656 1405.64 685.055 1406.77 683.049C1407.9 681.044 1408.47 678.828 1408.47 676.402C1408.47 673.685 1407.93 671.307 1406.87 669.27C1405.8 667.232 1404.12 665.663 1401.82 664.563C1399.56 663.431 1396.63 662.865 1393.04 662.865H1379.02V725.845H1369.65V655.198ZM1410.94 725.845L1393.77 693.821L1403.52 693.772L1420.94 725.262V725.845H1410.94ZM1451.31 726.815C1447.66 726.815 1444.34 726.201 1441.37 724.971C1438.42 723.71 1435.88 721.947 1433.75 719.683C1431.64 717.418 1430.03 714.733 1428.9 711.628C1427.76 708.523 1427.2 705.126 1427.2 701.439V699.401C1427.2 695.131 1427.83 691.33 1429.09 687.999C1430.35 684.634 1432.07 681.788 1434.23 679.459C1436.4 677.13 1438.86 675.367 1441.61 674.17C1444.36 672.973 1447.2 672.375 1450.15 672.375C1453.9 672.375 1457.13 673.022 1459.85 674.316C1462.6 675.61 1464.85 677.421 1466.6 679.75C1468.34 682.047 1469.64 684.764 1470.48 687.901C1471.32 691.007 1471.74 694.403 1471.74 698.091V702.118H1432.53V694.791H1462.76V694.112C1462.63 691.783 1462.15 689.519 1461.31 687.319C1460.5 685.12 1459.2 683.308 1457.43 681.885C1455.65 680.462 1453.22 679.75 1450.15 679.75C1448.11 679.75 1446.23 680.187 1444.52 681.06C1442.8 681.901 1441.33 683.163 1440.1 684.845C1438.87 686.527 1437.92 688.581 1437.24 691.007C1436.56 693.433 1436.22 696.231 1436.22 699.401V701.439C1436.22 703.93 1436.56 706.275 1437.24 708.474C1437.95 710.642 1438.97 712.55 1440.3 714.2C1441.66 715.849 1443.29 717.143 1445.2 718.081C1447.14 719.019 1449.34 719.489 1451.8 719.489C1454.97 719.489 1457.65 718.842 1459.85 717.548C1462.05 716.254 1463.98 714.523 1465.63 712.356L1471.06 716.674C1469.93 718.389 1468.49 720.022 1466.74 721.575C1464.99 723.128 1462.84 724.389 1460.29 725.36C1457.77 726.33 1454.77 726.815 1451.31 726.815ZM1513.18 716.868V689.842C1513.18 687.772 1512.76 685.977 1511.91 684.457C1511.11 682.904 1509.88 681.707 1508.23 680.866C1506.58 680.025 1504.54 679.604 1502.11 679.604C1499.85 679.604 1497.86 679.993 1496.15 680.769C1494.46 681.545 1493.14 682.564 1492.17 683.826C1491.23 685.087 1490.76 686.446 1490.76 687.901H1481.78C1481.78 686.025 1482.27 684.165 1483.24 682.322C1484.21 680.478 1485.6 678.812 1487.41 677.324C1489.26 675.804 1491.45 674.607 1494.01 673.733C1496.6 672.828 1499.48 672.375 1502.65 672.375C1506.46 672.375 1509.83 673.022 1512.74 674.316C1515.68 675.61 1517.98 677.567 1519.63 680.187C1521.31 682.774 1522.15 686.025 1522.15 689.939V714.394C1522.15 716.141 1522.3 718.001 1522.59 719.974C1522.91 721.947 1523.38 723.645 1524 725.068V725.845H1514.63C1514.18 724.81 1513.82 723.435 1513.56 721.72C1513.31 719.974 1513.18 718.356 1513.18 716.868ZM1514.73 694.015L1514.83 700.323H1505.75C1503.2 700.323 1500.92 700.533 1498.91 700.954C1496.91 701.342 1495.22 701.94 1493.86 702.749C1492.51 703.558 1491.47 704.576 1490.76 705.806C1490.05 707.002 1489.69 708.41 1489.69 710.027C1489.69 711.677 1490.06 713.181 1490.81 714.539C1491.55 715.898 1492.67 716.982 1494.16 717.79C1495.68 718.567 1497.54 718.955 1499.74 718.955C1502.49 718.955 1504.91 718.373 1507.01 717.208C1509.12 716.044 1510.78 714.62 1512.01 712.938C1513.27 711.256 1513.95 709.623 1514.05 708.038L1517.88 712.356C1517.66 713.715 1517.04 715.219 1516.04 716.868C1515.04 718.518 1513.69 720.103 1512.01 721.623C1510.36 723.111 1508.39 724.357 1506.09 725.36C1503.83 726.33 1501.27 726.815 1498.43 726.815C1494.87 726.815 1491.75 726.12 1489.06 724.729C1486.41 723.338 1484.34 721.478 1482.85 719.149C1481.39 716.788 1480.67 714.151 1480.67 711.24C1480.67 708.426 1481.22 705.951 1482.32 703.816C1483.42 701.649 1485 699.854 1487.07 698.43C1489.14 696.975 1491.63 695.875 1494.54 695.131C1497.46 694.387 1500.71 694.015 1504.3 694.015H1514.73ZM1569.36 715.655V651.317H1578.39V725.845H1570.14L1569.36 715.655ZM1534.04 700.177V699.158C1534.04 695.147 1534.53 691.508 1535.5 688.241C1536.5 684.942 1537.91 682.111 1539.72 679.75C1541.56 677.389 1543.74 675.577 1546.27 674.316C1548.82 673.022 1551.67 672.375 1554.81 672.375C1558.11 672.375 1560.99 672.957 1563.44 674.122C1565.93 675.254 1568.04 676.92 1569.75 679.119C1571.5 681.286 1572.87 683.907 1573.88 686.98C1574.88 690.053 1575.57 693.53 1575.96 697.412V701.875C1575.61 705.725 1574.91 709.186 1573.88 712.259C1572.87 715.332 1571.5 717.952 1569.75 720.119C1568.04 722.287 1565.93 723.952 1563.44 725.117C1560.95 726.249 1558.04 726.815 1554.71 726.815C1551.64 726.815 1548.82 726.152 1546.27 724.826C1543.74 723.5 1541.56 721.64 1539.72 719.246C1537.91 716.852 1536.5 714.038 1535.5 710.803C1534.53 707.536 1534.04 703.994 1534.04 700.177ZM1543.06 699.158V700.177C1543.06 702.797 1543.32 705.256 1543.84 707.552C1544.39 709.849 1545.23 711.871 1546.36 713.617C1547.5 715.364 1548.94 716.739 1550.68 717.742C1552.43 718.712 1554.52 719.197 1556.94 719.197C1559.92 719.197 1562.36 718.567 1564.27 717.305C1566.21 716.044 1567.76 714.378 1568.93 712.307C1570.09 710.237 1571 707.989 1571.64 705.563V693.87C1571.26 692.09 1570.69 690.376 1569.95 688.726C1569.23 687.044 1568.3 685.556 1567.13 684.262C1566 682.936 1564.59 681.885 1562.91 681.109C1561.26 680.332 1559.3 679.944 1557.04 679.944C1554.58 679.944 1552.46 680.462 1550.68 681.497C1548.94 682.499 1547.5 683.89 1546.36 685.67C1545.23 687.416 1544.39 689.454 1543.84 691.783C1543.32 694.08 1543.06 696.538 1543.06 699.158ZM1602.11 673.345V725.845H1593.09V673.345H1602.11ZM1592.41 659.42C1592.41 657.964 1592.85 656.735 1593.72 655.732C1594.63 654.729 1595.95 654.228 1597.7 654.228C1599.41 654.228 1600.72 654.729 1601.63 655.732C1602.57 656.735 1603.04 657.964 1603.04 659.42C1603.04 660.811 1602.57 662.008 1601.63 663.01C1600.72 663.981 1599.41 664.466 1597.7 664.466C1595.95 664.466 1594.63 663.981 1593.72 663.01C1592.85 662.008 1592.41 660.811 1592.41 659.42ZM1625.5 684.554V725.845H1616.53V673.345H1625.02L1625.5 684.554ZM1623.37 697.606L1619.63 697.46C1619.66 693.87 1620.2 690.554 1621.23 687.513C1622.27 684.44 1623.72 681.772 1625.6 679.507C1627.47 677.243 1629.71 675.496 1632.29 674.267C1634.91 673.006 1637.81 672.375 1640.98 672.375C1643.57 672.375 1645.9 672.731 1647.97 673.442C1650.04 674.122 1651.8 675.221 1653.26 676.742C1654.74 678.262 1655.88 680.235 1656.65 682.661C1657.43 685.055 1657.82 687.982 1657.82 691.443V725.845H1648.79V691.346C1648.79 688.597 1648.39 686.397 1647.58 684.748C1646.77 683.066 1645.59 681.853 1644.04 681.109C1642.48 680.332 1640.58 679.944 1638.31 679.944C1636.08 679.944 1634.04 680.413 1632.2 681.351C1630.39 682.289 1628.82 683.583 1627.49 685.233C1626.2 686.883 1625.18 688.775 1624.43 690.91C1623.72 693.012 1623.37 695.244 1623.37 697.606ZM1693.24 726.815C1689.58 726.815 1686.27 726.201 1683.29 724.971C1680.35 723.71 1677.81 721.947 1675.67 719.683C1673.57 717.418 1671.95 714.733 1670.82 711.628C1669.69 708.523 1669.12 705.126 1669.12 701.439V699.401C1669.12 695.131 1669.75 691.33 1671.01 687.999C1672.28 684.634 1673.99 681.788 1676.16 679.459C1678.32 677.13 1680.78 675.367 1683.53 674.17C1686.28 672.973 1689.13 672.375 1692.07 672.375C1695.82 672.375 1699.06 673.022 1701.78 674.316C1704.53 675.61 1706.77 677.421 1708.52 679.75C1710.27 682.047 1711.56 684.764 1712.4 687.901C1713.24 691.007 1713.66 694.403 1713.66 698.091V702.118H1674.46V694.791H1704.69V694.112C1704.56 691.783 1704.07 689.519 1703.23 687.319C1702.42 685.12 1701.13 683.308 1699.35 681.885C1697.57 680.462 1695.15 679.75 1692.07 679.75C1690.03 679.75 1688.16 680.187 1686.44 681.06C1684.73 681.901 1683.26 683.163 1682.03 684.845C1680.8 686.527 1679.84 688.581 1679.17 691.007C1678.49 693.433 1678.15 696.231 1678.15 699.401V701.439C1678.15 703.93 1678.49 706.275 1679.17 708.474C1679.88 710.642 1680.9 712.55 1682.22 714.2C1683.58 715.849 1685.21 717.143 1687.12 718.081C1689.06 719.019 1691.26 719.489 1693.72 719.489C1696.89 719.489 1699.58 718.842 1701.78 717.548C1703.98 716.254 1705.9 714.523 1707.55 712.356L1712.98 716.674C1711.85 718.389 1710.41 720.022 1708.67 721.575C1706.92 723.128 1704.77 724.389 1702.21 725.36C1699.69 726.33 1696.7 726.815 1693.24 726.815ZM1754.71 711.919C1754.71 710.625 1754.42 709.429 1753.84 708.329C1753.29 707.197 1752.14 706.178 1750.39 705.272C1748.68 704.334 1746.09 703.525 1742.63 702.846C1739.72 702.231 1737.08 701.503 1734.72 700.662C1732.39 699.821 1730.4 698.802 1728.75 697.606C1727.14 696.409 1725.89 695.002 1725.02 693.384C1724.14 691.767 1723.71 689.875 1723.71 687.707C1723.71 685.637 1724.16 683.68 1725.07 681.836C1726 679.993 1727.31 678.359 1729 676.936C1730.71 675.513 1732.76 674.397 1735.16 673.588C1737.55 672.779 1740.22 672.375 1743.16 672.375C1747.37 672.375 1750.96 673.119 1753.94 674.607C1756.91 676.095 1759.19 678.084 1760.78 680.575C1762.36 683.033 1763.16 685.767 1763.16 688.775H1754.18C1754.18 687.319 1753.74 685.912 1752.87 684.554C1752.03 683.163 1750.78 682.014 1749.13 681.109C1747.52 680.203 1745.53 679.75 1743.16 679.75C1740.67 679.75 1738.65 680.138 1737.1 680.914C1735.58 681.658 1734.46 682.613 1733.75 683.777C1733.07 684.942 1732.73 686.171 1732.73 687.465C1732.73 688.435 1732.89 689.309 1733.22 690.085C1733.57 690.829 1734.19 691.524 1735.06 692.171C1735.93 692.786 1737.16 693.368 1738.75 693.918C1740.33 694.468 1742.36 695.018 1744.81 695.568C1749.12 696.538 1752.66 697.703 1755.44 699.061C1758.22 700.42 1760.29 702.086 1761.65 704.059C1763.01 706.032 1763.69 708.426 1763.69 711.24C1763.69 713.537 1763.2 715.639 1762.23 717.548C1761.3 719.456 1759.92 721.106 1758.11 722.497C1756.33 723.855 1754.19 724.923 1751.7 725.699C1749.25 726.443 1746.48 726.815 1743.41 726.815C1738.78 726.815 1734.87 725.99 1731.67 724.341C1728.46 722.691 1726.04 720.556 1724.39 717.936C1722.74 715.316 1721.91 712.55 1721.91 709.639H1730.94C1731.07 712.097 1731.78 714.054 1733.07 715.51C1734.37 716.933 1735.95 717.952 1737.83 718.567C1739.7 719.149 1741.56 719.44 1743.41 719.44C1745.87 719.44 1747.92 719.117 1749.57 718.47C1751.25 717.823 1752.53 716.933 1753.4 715.801C1754.28 714.669 1754.71 713.375 1754.71 711.919ZM1806.05 711.919C1806.05 710.625 1805.76 709.429 1805.17 708.329C1804.62 707.197 1803.48 706.178 1801.73 705.272C1800.01 704.334 1797.43 703.525 1793.97 702.846C1791.05 702.231 1788.42 701.503 1786.06 700.662C1783.73 699.821 1781.74 698.802 1780.09 697.606C1778.47 696.409 1777.23 695.002 1776.35 693.384C1775.48 691.767 1775.04 689.875 1775.04 687.707C1775.04 685.637 1775.5 683.68 1776.4 681.836C1777.34 679.993 1778.65 678.359 1780.33 676.936C1782.05 675.513 1784.1 674.397 1786.49 673.588C1788.89 672.779 1791.56 672.375 1794.5 672.375C1798.7 672.375 1802.3 673.119 1805.27 674.607C1808.25 676.095 1810.53 678.084 1812.11 680.575C1813.7 683.033 1814.49 685.767 1814.49 688.775H1805.51C1805.51 687.319 1805.08 685.912 1804.2 684.554C1803.36 683.163 1802.12 682.014 1800.47 681.109C1798.85 680.203 1796.86 679.75 1794.5 679.75C1792.01 679.75 1789.99 680.138 1788.43 680.914C1786.91 681.658 1785.8 682.613 1785.09 683.777C1784.41 684.942 1784.07 686.171 1784.07 687.465C1784.07 688.435 1784.23 689.309 1784.55 690.085C1784.91 690.829 1785.52 691.524 1786.4 692.171C1787.27 692.786 1788.5 693.368 1790.08 693.918C1791.67 694.468 1793.69 695.018 1796.15 695.568C1800.45 696.538 1803.99 697.703 1806.78 699.061C1809.56 700.42 1811.63 702.086 1812.99 704.059C1814.34 706.032 1815.02 708.426 1815.02 711.24C1815.02 713.537 1814.54 715.639 1813.57 717.548C1812.63 719.456 1811.26 721.106 1809.44 722.497C1807.66 723.855 1805.53 724.923 1803.04 725.699C1800.58 726.443 1797.82 726.815 1794.74 726.815C1790.12 726.815 1786.2 725.99 1783 724.341C1779.8 722.691 1777.37 720.556 1775.72 717.936C1774.07 715.316 1773.25 712.55 1773.25 709.639H1782.27C1782.4 712.097 1783.11 714.054 1784.41 715.51C1785.7 716.933 1787.29 717.952 1789.16 718.567C1791.04 719.149 1792.9 719.44 1794.74 719.44C1797.2 719.44 1799.25 719.117 1800.9 718.47C1802.59 717.823 1803.86 716.933 1804.74 715.801C1805.61 714.669 1806.05 713.375 1806.05 711.919ZM1895.47 703.38H1904.79C1904.3 707.844 1903.02 711.838 1900.95 715.364C1898.88 718.89 1895.96 721.688 1892.17 723.758C1888.39 725.796 1883.66 726.815 1878 726.815C1873.86 726.815 1870.09 726.039 1866.7 724.486C1863.33 722.933 1860.44 720.734 1858.01 717.887C1855.59 715.008 1853.71 711.563 1852.38 707.552C1851.09 703.509 1850.44 699.013 1850.44 694.064V687.028C1850.44 682.079 1851.09 677.599 1852.38 673.588C1853.71 669.544 1855.6 666.083 1858.06 663.204C1860.55 660.326 1863.54 658.11 1867.04 656.557C1870.53 655.004 1874.46 654.228 1878.83 654.228C1884.17 654.228 1888.68 655.231 1892.37 657.236C1896.05 659.242 1898.92 662.024 1900.95 665.582C1903.02 669.108 1904.3 673.2 1904.79 677.858H1895.47C1895.02 674.558 1894.18 671.728 1892.95 669.367C1891.72 666.973 1889.97 665.129 1887.71 663.835C1885.44 662.541 1882.48 661.894 1878.83 661.894C1875.69 661.894 1872.93 662.493 1870.53 663.69C1868.17 664.886 1866.18 666.585 1864.56 668.784C1862.98 670.984 1861.78 673.62 1860.97 676.693C1860.16 679.766 1859.76 683.179 1859.76 686.931V694.064C1859.76 697.525 1860.12 700.776 1860.83 703.816C1861.57 706.857 1862.69 709.526 1864.18 711.822C1865.66 714.119 1867.56 715.93 1869.85 717.257C1872.15 718.55 1874.87 719.197 1878 719.197C1881.98 719.197 1885.15 718.567 1887.51 717.305C1889.88 716.044 1891.65 714.232 1892.85 711.871C1894.08 709.509 1894.95 706.679 1895.47 703.38ZM1925.17 651.317V725.845H1916.19V651.317H1925.17ZM1923.03 697.606L1919.3 697.46C1919.33 693.87 1919.86 690.554 1920.9 687.513C1921.93 684.44 1923.39 681.772 1925.26 679.507C1927.14 677.243 1929.37 675.496 1931.96 674.267C1934.58 673.006 1937.47 672.375 1940.64 672.375C1943.23 672.375 1945.56 672.731 1947.63 673.442C1949.7 674.122 1951.46 675.221 1952.92 676.742C1954.41 678.262 1955.54 680.235 1956.32 682.661C1957.09 685.055 1957.48 687.982 1957.48 691.443V725.845H1948.46V691.346C1948.46 688.597 1948.05 686.397 1947.24 684.748C1946.43 683.066 1945.25 681.853 1943.7 681.109C1942.15 680.332 1940.24 679.944 1937.98 679.944C1935.74 679.944 1933.71 680.413 1931.86 681.351C1930.05 682.289 1928.48 683.583 1927.16 685.233C1925.86 686.883 1924.84 688.775 1924.1 690.91C1923.39 693.012 1923.03 695.244 1923.03 697.606ZM1992.71 726.815C1989.05 726.815 1985.74 726.201 1982.76 724.971C1979.82 723.71 1977.28 721.947 1975.14 719.683C1973.04 717.418 1971.42 714.733 1970.29 711.628C1969.16 708.523 1968.59 705.126 1968.59 701.439V699.401C1968.59 695.131 1969.22 691.33 1970.48 687.999C1971.75 684.634 1973.46 681.788 1975.63 679.459C1977.79 677.13 1980.25 675.367 1983 674.17C1985.75 672.973 1988.6 672.375 1991.54 672.375C1995.29 672.375 1998.53 673.022 2001.25 674.316C2004 675.61 2006.24 677.421 2007.99 679.75C2009.74 682.047 2011.03 684.764 2011.87 687.901C2012.71 691.007 2013.13 694.403 2013.13 698.091V702.118H1973.93V694.791H2004.16V694.112C2004.03 691.783 2003.54 689.519 2002.7 687.319C2001.89 685.12 2000.6 683.308 1998.82 681.885C1997.04 680.462 1994.62 679.75 1991.54 679.75C1989.5 679.75 1987.63 680.187 1985.91 681.06C1984.2 681.901 1982.73 683.163 1981.5 684.845C1980.27 686.527 1979.32 688.581 1978.64 691.007C1977.96 693.433 1977.62 696.231 1977.62 699.401V701.439C1977.62 703.93 1977.96 706.275 1978.64 708.474C1979.35 710.642 1980.37 712.55 1981.69 714.2C1983.05 715.849 1984.68 717.143 1986.59 718.081C1988.53 719.019 1990.73 719.489 1993.19 719.489C1996.36 719.489 1999.05 718.842 2001.25 717.548C2003.45 716.254 2005.37 714.523 2007.02 712.356L2012.45 716.674C2011.32 718.389 2009.88 720.022 2008.14 721.575C2006.39 723.128 2004.24 724.389 2001.68 725.36C1999.16 726.33 1996.17 726.815 1992.71 726.815ZM2044.62 719.44C2046.76 719.44 2048.73 719.003 2050.54 718.13C2052.36 717.257 2053.84 716.06 2055.01 714.539C2056.17 712.987 2056.84 711.224 2057 709.251H2065.54C2065.37 712.356 2064.32 715.251 2062.38 717.936C2060.47 720.588 2057.97 722.739 2054.86 724.389C2051.76 726.006 2048.34 726.815 2044.62 726.815C2040.68 726.815 2037.23 726.12 2034.29 724.729C2031.38 723.338 2028.95 721.429 2027.01 719.003C2025.1 716.577 2023.66 713.795 2022.69 710.658C2021.75 707.488 2021.29 704.14 2021.29 700.614V698.576C2021.29 695.05 2021.75 691.718 2022.69 688.581C2023.66 685.411 2025.1 682.613 2027.01 680.187C2028.95 677.761 2031.38 675.852 2034.29 674.461C2037.23 673.07 2040.68 672.375 2044.62 672.375C2048.73 672.375 2052.32 673.216 2055.4 674.898C2058.47 676.548 2060.88 678.812 2062.63 681.691C2064.4 684.537 2065.37 687.772 2065.54 691.395H2057C2056.84 689.228 2056.22 687.271 2055.15 685.524C2054.12 683.777 2052.69 682.386 2050.88 681.351C2049.1 680.284 2047.02 679.75 2044.62 679.75C2041.87 679.75 2039.56 680.3 2037.69 681.4C2035.84 682.467 2034.37 683.923 2033.27 685.767C2032.2 687.578 2031.43 689.6 2030.94 691.832C2030.49 694.031 2030.26 696.279 2030.26 698.576V700.614C2030.26 702.911 2030.49 705.175 2030.94 707.407C2031.39 709.639 2032.15 711.66 2033.22 713.472C2034.32 715.283 2035.79 716.739 2037.64 717.839C2039.51 718.906 2041.84 719.44 2044.62 719.44ZM2084.65 651.317V725.845H2075.63V651.317H2084.65ZM2116.73 673.345L2093.82 697.848L2081.01 711.143L2080.29 701.584L2089.46 690.619L2105.76 673.345H2116.73ZM2108.53 725.845L2089.8 700.808L2094.45 692.802L2119.1 725.845H2108.53ZM2135.75 673.345V725.845H2126.72V673.345H2135.75ZM2126.04 659.42C2126.04 657.964 2126.48 656.735 2127.35 655.732C2128.26 654.729 2129.58 654.228 2131.33 654.228C2133.05 654.228 2134.36 654.729 2135.26 655.732C2136.2 656.735 2136.67 657.964 2136.67 659.42C2136.67 660.811 2136.2 662.008 2135.26 663.01C2134.36 663.981 2133.05 664.466 2131.33 664.466C2129.58 664.466 2128.26 663.981 2127.35 663.01C2126.48 662.008 2126.04 660.811 2126.04 659.42ZM2159.13 684.554V725.845H2150.16V673.345H2158.65L2159.13 684.554ZM2157 697.606L2153.26 697.46C2153.29 693.87 2153.83 690.554 2154.86 687.513C2155.9 684.44 2157.35 681.772 2159.23 679.507C2161.11 677.243 2163.34 675.496 2165.93 674.267C2168.55 673.006 2171.44 672.375 2174.61 672.375C2177.2 672.375 2179.53 672.731 2181.6 673.442C2183.67 674.122 2185.43 675.221 2186.89 676.742C2188.38 678.262 2189.51 680.235 2190.28 682.661C2191.06 685.055 2191.45 687.982 2191.45 691.443V725.845H2182.42V691.346C2182.42 688.597 2182.02 686.397 2181.21 684.748C2180.4 683.066 2179.22 681.853 2177.67 681.109C2176.12 680.332 2174.21 679.944 2171.94 679.944C2169.71 679.944 2167.67 680.413 2165.83 681.351C2164.02 682.289 2162.45 683.583 2161.12 685.233C2159.83 686.883 2158.81 688.775 2158.07 690.91C2157.35 693.012 2157 695.244 2157 697.606ZM2239.1 673.345H2247.25V724.729C2247.25 729.354 2246.31 733.301 2244.43 736.568C2242.56 739.835 2239.94 742.309 2236.57 743.991C2233.24 745.706 2229.39 746.563 2225.02 746.563C2223.21 746.563 2221.08 746.272 2218.62 745.69C2216.19 745.14 2213.8 744.186 2211.44 742.827C2209.11 741.501 2207.15 739.705 2205.57 737.441L2210.27 732.104C2212.47 734.756 2214.77 736.6 2217.16 737.635C2219.59 738.67 2221.98 739.188 2224.35 739.188C2227.19 739.188 2229.65 738.654 2231.72 737.587C2233.79 736.519 2235.39 734.934 2236.52 732.832C2237.69 730.761 2238.27 728.206 2238.27 725.165V684.893L2239.1 673.345ZM2202.95 700.177V699.158C2202.95 695.147 2203.42 691.508 2204.35 688.241C2205.33 684.942 2206.7 682.111 2208.48 679.75C2210.29 677.389 2212.47 675.577 2215.03 674.316C2217.58 673.022 2220.46 672.375 2223.67 672.375C2226.97 672.375 2229.84 672.957 2232.3 674.122C2234.79 675.254 2236.9 676.92 2238.61 679.119C2240.36 681.286 2241.73 683.907 2242.73 686.98C2243.74 690.053 2244.43 693.53 2244.82 697.412V701.875C2244.47 705.725 2243.77 709.186 2242.73 712.259C2241.73 715.332 2240.36 717.952 2238.61 720.119C2236.9 722.287 2234.79 723.952 2232.3 725.117C2229.81 726.249 2226.9 726.815 2223.57 726.815C2220.43 726.815 2217.58 726.152 2215.03 724.826C2212.51 723.5 2210.34 721.64 2208.53 719.246C2206.72 716.852 2205.33 714.038 2204.35 710.803C2203.42 707.536 2202.95 703.994 2202.95 700.177ZM2211.92 699.158V700.177C2211.92 702.797 2212.18 705.256 2212.7 707.552C2213.25 709.849 2214.07 711.871 2215.17 713.617C2216.31 715.364 2217.75 716.739 2219.49 717.742C2221.24 718.712 2223.33 719.197 2225.75 719.197C2228.73 719.197 2231.19 718.567 2233.13 717.305C2235.07 716.044 2236.6 714.378 2237.74 712.307C2238.9 710.237 2239.81 707.989 2240.45 705.563V693.87C2240.1 692.09 2239.55 690.376 2238.8 688.726C2238.09 687.044 2237.15 685.556 2235.99 684.262C2234.86 682.936 2233.45 681.885 2231.77 681.109C2230.09 680.332 2228.11 679.944 2225.85 679.944C2223.39 679.944 2221.27 680.462 2219.49 681.497C2217.75 682.499 2216.31 683.89 2215.17 685.67C2214.07 687.416 2213.25 689.454 2212.7 691.783C2212.18 694.08 2211.92 696.538 2211.92 699.158ZM2331.77 718.227V725.845H2294.36V718.227H2331.77ZM2296.25 655.198V725.845H2286.89V655.198H2296.25ZM2326.82 685.572V693.19H2294.36V685.572H2326.82ZM2331.28 655.198V662.865H2294.36V655.198H2331.28ZM2350.98 684.554V725.845H2342.01V673.345H2350.5L2350.98 684.554ZM2348.85 697.606L2345.11 697.46C2345.15 693.87 2345.68 690.554 2346.71 687.513C2347.75 684.44 2349.21 681.772 2351.08 679.507C2352.96 677.243 2355.19 675.496 2357.78 674.267C2360.4 673.006 2363.29 672.375 2366.46 672.375C2369.05 672.375 2371.38 672.731 2373.45 673.442C2375.52 674.122 2377.28 675.221 2378.74 676.742C2380.23 678.262 2381.36 680.235 2382.13 682.661C2382.91 685.055 2383.3 687.982 2383.3 691.443V725.845H2374.27V691.346C2374.27 688.597 2373.87 686.397 2373.06 684.748C2372.25 683.066 2371.07 681.853 2369.52 681.109C2367.97 680.332 2366.06 679.944 2363.79 679.944C2361.56 679.944 2359.52 680.413 2357.68 681.351C2355.87 682.289 2354.3 683.583 2352.97 685.233C2351.68 686.883 2350.66 688.775 2349.92 690.91C2349.21 693.012 2348.85 695.244 2348.85 697.606ZM2430.95 673.345H2439.1V724.729C2439.1 729.354 2438.16 733.301 2436.28 736.568C2434.41 739.835 2431.79 742.309 2428.42 743.991C2425.09 745.706 2421.24 746.563 2416.88 746.563C2415.06 746.563 2412.93 746.272 2410.47 745.69C2408.04 745.14 2405.65 744.186 2403.29 742.827C2400.96 741.501 2399 739.705 2397.42 737.441L2402.13 732.104C2404.32 734.756 2406.62 736.6 2409.02 737.635C2411.44 738.67 2413.83 739.188 2416.2 739.188C2419.04 739.188 2421.5 738.654 2423.57 737.587C2425.64 736.519 2427.24 734.934 2428.37 732.832C2429.54 730.761 2430.12 728.206 2430.12 725.165V684.893L2430.95 673.345ZM2394.8 700.177V699.158C2394.8 695.147 2395.27 691.508 2396.21 688.241C2397.18 684.942 2398.55 682.111 2400.33 679.75C2402.14 677.389 2404.32 675.577 2406.88 674.316C2409.44 673.022 2412.31 672.375 2415.52 672.375C2418.82 672.375 2421.7 672.957 2424.15 674.122C2426.64 675.254 2428.75 676.92 2430.46 679.119C2432.21 681.286 2433.58 683.907 2434.59 686.98C2435.59 690.053 2436.28 693.53 2436.67 697.412V701.875C2436.32 705.725 2435.62 709.186 2434.59 712.259C2433.58 715.332 2432.21 717.952 2430.46 720.119C2428.75 722.287 2426.64 723.952 2424.15 725.117C2421.66 726.249 2418.75 726.815 2415.42 726.815C2412.28 726.815 2409.44 726.152 2406.88 724.826C2404.36 723.5 2402.19 721.64 2400.38 719.246C2398.57 716.852 2397.18 714.038 2396.21 710.803C2395.27 707.536 2394.8 703.994 2394.8 700.177ZM2403.77 699.158V700.177C2403.77 702.797 2404.03 705.256 2404.55 707.552C2405.1 709.849 2405.93 711.871 2407.03 713.617C2408.16 715.364 2409.6 716.739 2411.34 717.742C2413.09 718.712 2415.18 719.197 2417.6 719.197C2420.58 719.197 2423.04 718.567 2424.98 717.305C2426.92 716.044 2428.46 714.378 2429.59 712.307C2430.75 710.237 2431.66 707.989 2432.31 705.563V693.87C2431.95 692.09 2431.4 690.376 2430.66 688.726C2429.94 687.044 2429.01 685.556 2427.84 684.262C2426.71 682.936 2425.3 681.885 2423.62 681.109C2421.94 680.332 2419.96 679.944 2417.7 679.944C2415.24 679.944 2413.12 680.462 2411.34 681.497C2409.6 682.499 2408.16 683.89 2407.03 685.67C2405.93 687.416 2405.1 689.454 2404.55 691.783C2404.03 694.08 2403.77 696.538 2403.77 699.158ZM2462.49 673.345V725.845H2453.46V673.345H2462.49ZM2452.78 659.42C2452.78 657.964 2453.22 656.735 2454.09 655.732C2455 654.729 2456.32 654.228 2458.07 654.228C2459.78 654.228 2461.09 654.729 2462 655.732C2462.94 656.735 2463.41 657.964 2463.41 659.42C2463.41 660.811 2462.94 662.008 2462 663.01C2461.09 663.981 2459.78 664.466 2458.07 664.466C2456.32 664.466 2455 663.981 2454.09 663.01C2453.22 662.008 2452.78 660.811 2452.78 659.42ZM2485.87 684.554V725.845H2476.9V673.345H2485.39L2485.87 684.554ZM2483.74 697.606L2480 697.46C2480.03 693.87 2480.57 690.554 2481.6 687.513C2482.64 684.44 2484.09 681.772 2485.97 679.507C2487.85 677.243 2490.08 675.496 2492.67 674.267C2495.29 673.006 2498.18 672.375 2501.35 672.375C2503.94 672.375 2506.27 672.731 2508.34 673.442C2510.41 674.122 2512.17 675.221 2513.63 676.742C2515.11 678.262 2516.25 680.235 2517.02 682.661C2517.8 685.055 2518.19 687.982 2518.19 691.443V725.845H2509.16V691.346C2509.16 688.597 2508.76 686.397 2507.95 684.748C2507.14 683.066 2505.96 681.853 2504.41 681.109C2502.85 680.332 2500.95 679.944 2498.68 679.944C2496.45 679.944 2494.41 680.413 2492.57 681.351C2490.76 682.289 2489.19 683.583 2487.86 685.233C2486.57 686.883 2485.55 688.775 2484.8 690.91C2484.09 693.012 2483.74 695.244 2483.74 697.606ZM2553.61 726.815C2549.95 726.815 2546.64 726.201 2543.66 724.971C2540.72 723.71 2538.18 721.947 2536.04 719.683C2533.94 717.418 2532.32 714.733 2531.19 711.628C2530.06 708.523 2529.49 705.126 2529.49 701.439V699.401C2529.49 695.131 2530.12 691.33 2531.38 687.999C2532.65 684.634 2534.36 681.788 2536.53 679.459C2538.7 677.13 2541.15 675.367 2543.9 674.17C2546.65 672.973 2549.5 672.375 2552.44 672.375C2556.19 672.375 2559.43 673.022 2562.15 674.316C2564.9 675.61 2567.14 677.421 2568.89 679.75C2570.64 682.047 2571.93 684.764 2572.77 687.901C2573.61 691.007 2574.03 694.403 2574.03 698.091V702.118H2534.83V694.791H2565.06V694.112C2564.93 691.783 2564.44 689.519 2563.6 687.319C2562.79 685.12 2561.5 683.308 2559.72 681.885C2557.94 680.462 2555.52 679.75 2552.44 679.75C2550.4 679.75 2548.53 680.187 2546.81 681.06C2545.1 681.901 2543.63 683.163 2542.4 684.845C2541.17 686.527 2540.22 688.581 2539.54 691.007C2538.86 693.433 2538.52 696.231 2538.52 699.401V701.439C2538.52 703.93 2538.86 706.275 2539.54 708.474C2540.25 710.642 2541.27 712.55 2542.59 714.2C2543.95 715.849 2545.59 717.143 2547.49 718.081C2549.43 719.019 2551.63 719.489 2554.09 719.489C2557.26 719.489 2559.95 718.842 2562.15 717.548C2564.35 716.254 2566.27 714.523 2567.92 712.356L2573.36 716.674C2572.22 718.389 2570.78 720.022 2569.04 721.575C2567.29 723.128 2565.14 724.389 2562.58 725.36C2560.06 726.33 2557.07 726.815 2553.61 726.815ZM2648.17 707.989C2648.17 706.339 2647.92 704.884 2647.4 703.622C2646.91 702.328 2646.04 701.164 2644.78 700.129C2643.55 699.094 2641.83 698.107 2639.63 697.169C2637.47 696.231 2634.72 695.277 2631.39 694.306C2627.89 693.271 2624.74 692.123 2621.92 690.861C2619.11 689.567 2616.7 688.096 2614.69 686.446C2612.69 684.796 2611.15 682.904 2610.09 680.769C2609.02 678.634 2608.48 676.192 2608.48 673.442C2608.48 670.693 2609.05 668.154 2610.18 665.825C2611.31 663.496 2612.93 661.474 2615.03 659.759C2617.17 658.013 2619.71 656.654 2622.65 655.684C2625.6 654.713 2628.88 654.228 2632.5 654.228C2637.81 654.228 2642.3 655.247 2645.99 657.285C2649.71 659.29 2652.54 661.927 2654.48 665.194C2656.42 668.428 2657.39 671.89 2657.39 675.577H2648.08C2648.08 672.925 2647.51 670.58 2646.38 668.542C2645.25 666.471 2643.53 664.854 2641.24 663.69C2638.94 662.493 2636.03 661.894 2632.5 661.894C2629.17 661.894 2626.42 662.396 2624.25 663.398C2622.09 664.401 2620.47 665.76 2619.4 667.474C2618.37 669.189 2617.85 671.146 2617.85 673.345C2617.85 674.833 2618.16 676.192 2618.77 677.421C2619.42 678.618 2620.4 679.734 2621.73 680.769C2623.09 681.804 2624.8 682.758 2626.87 683.632C2628.98 684.505 2631.48 685.346 2634.39 686.155C2638.41 687.287 2641.87 688.548 2644.78 689.939C2647.69 691.33 2650.08 692.899 2651.96 694.646C2653.87 696.36 2655.27 698.317 2656.18 700.517C2657.12 702.684 2657.59 705.143 2657.59 707.892C2657.59 710.771 2657 713.375 2655.84 715.704C2654.68 718.033 2653.01 720.022 2650.84 721.672C2648.68 723.322 2646.07 724.599 2643.03 725.505C2640.02 726.378 2636.66 726.815 2632.94 726.815C2629.67 726.815 2626.45 726.362 2623.28 725.457C2620.15 724.551 2617.28 723.192 2614.69 721.381C2612.14 719.569 2610.09 717.337 2608.53 714.685C2607.01 712 2606.25 708.895 2606.25 705.369H2615.57C2615.57 707.795 2616.04 709.881 2616.98 711.628C2617.91 713.343 2619.19 714.766 2620.81 715.898C2622.46 717.03 2624.32 717.871 2626.39 718.421C2628.49 718.939 2630.67 719.197 2632.94 719.197C2636.21 719.197 2638.97 718.745 2641.24 717.839C2643.5 716.933 2645.21 715.639 2646.38 713.957C2647.58 712.275 2648.17 710.286 2648.17 707.989ZM2682.91 720.41L2697.52 673.345H2707.13L2686.07 733.948C2685.58 735.242 2684.94 736.633 2684.13 738.12C2683.35 739.641 2682.35 741.08 2681.12 742.439C2679.89 743.797 2678.4 744.897 2676.66 745.738C2674.94 746.612 2672.89 747.048 2670.49 747.048C2669.78 747.048 2668.88 746.951 2667.78 746.757C2666.68 746.563 2665.9 746.401 2665.45 746.272L2665.4 738.994C2665.66 739.026 2666.06 739.059 2666.61 739.091C2667.19 739.156 2667.6 739.188 2667.83 739.188C2669.86 739.188 2671.59 738.913 2673.02 738.363C2674.44 737.846 2675.64 736.956 2676.61 735.694C2677.61 734.465 2678.47 732.767 2679.18 730.6L2682.91 720.41ZM2672.19 673.345L2685.83 714.103L2688.16 723.564L2681.7 726.864L2662.39 673.345H2672.19ZM2745.8 711.919C2745.8 710.625 2745.51 709.429 2744.92 708.329C2744.37 707.197 2743.23 706.178 2741.48 705.272C2739.77 704.334 2737.18 703.525 2733.72 702.846C2730.81 702.231 2728.17 701.503 2725.81 700.662C2723.48 699.821 2721.49 698.802 2719.84 697.606C2718.22 696.409 2716.98 695.002 2716.1 693.384C2715.23 691.767 2714.79 689.875 2714.79 687.707C2714.79 685.637 2715.25 683.68 2716.15 681.836C2717.09 679.993 2718.4 678.359 2720.08 676.936C2721.8 675.513 2723.85 674.397 2726.24 673.588C2728.64 672.779 2731.31 672.375 2734.25 672.375C2738.46 672.375 2742.05 673.119 2745.02 674.607C2748 676.095 2750.28 678.084 2751.86 680.575C2753.45 683.033 2754.24 685.767 2754.24 688.775H2745.26C2745.26 687.319 2744.83 685.912 2743.95 684.554C2743.11 683.163 2741.87 682.014 2740.22 681.109C2738.6 680.203 2736.61 679.75 2734.25 679.75C2731.76 679.75 2729.74 680.138 2728.18 680.914C2726.66 681.658 2725.55 682.613 2724.84 683.777C2724.16 684.942 2723.82 686.171 2723.82 687.465C2723.82 688.435 2723.98 689.309 2724.3 690.085C2724.66 690.829 2725.27 691.524 2726.15 692.171C2727.02 692.786 2728.25 693.368 2729.83 693.918C2731.42 694.468 2733.44 695.018 2735.9 695.568C2740.2 696.538 2743.74 697.703 2746.53 699.061C2749.31 700.42 2751.38 702.086 2752.74 704.059C2754.1 706.032 2754.77 708.426 2754.77 711.24C2754.77 713.537 2754.29 715.639 2753.32 717.548C2752.38 719.456 2751.01 721.106 2749.19 722.497C2747.42 723.855 2745.28 724.923 2742.79 725.699C2740.33 726.443 2737.57 726.815 2734.49 726.815C2729.87 726.815 2725.95 725.99 2722.75 724.341C2719.55 722.691 2717.12 720.556 2715.47 717.936C2713.82 715.316 2713 712.55 2713 709.639H2722.02C2722.15 712.097 2722.86 714.054 2724.16 715.51C2725.45 716.933 2727.04 717.952 2728.91 718.567C2730.79 719.149 2732.65 719.44 2734.49 719.44C2736.95 719.44 2739.01 719.117 2740.65 718.47C2742.34 717.823 2743.61 716.933 2744.49 715.801C2745.36 714.669 2745.8 713.375 2745.8 711.919ZM2788.54 673.345V680.235H2760.16V673.345H2788.54ZM2769.77 660.584H2778.74V712.841C2778.74 714.62 2779.02 715.963 2779.57 716.868C2780.12 717.774 2780.83 718.373 2781.7 718.664C2782.58 718.955 2783.51 719.1 2784.52 719.1C2785.26 719.1 2786.04 719.036 2786.85 718.906C2787.69 718.745 2788.32 718.615 2788.74 718.518L2788.79 725.845C2788.08 726.071 2787.14 726.281 2785.97 726.475C2784.84 726.702 2783.47 726.815 2781.85 726.815C2779.65 726.815 2777.63 726.378 2775.78 725.505C2773.94 724.632 2772.47 723.176 2771.37 721.138C2770.3 719.068 2769.77 716.286 2769.77 712.793V660.584ZM2820.86 726.815C2817.2 726.815 2813.89 726.201 2810.91 724.971C2807.97 723.71 2805.43 721.947 2803.3 719.683C2801.19 717.418 2799.58 714.733 2798.44 711.628C2797.31 708.523 2796.74 705.126 2796.74 701.439V699.401C2796.74 695.131 2797.38 691.33 2798.64 687.999C2799.9 684.634 2801.61 681.788 2803.78 679.459C2805.95 677.13 2808.41 675.367 2811.16 674.17C2813.9 672.973 2816.75 672.375 2819.7 672.375C2823.45 672.375 2826.68 673.022 2829.4 674.316C2832.15 675.61 2834.4 677.421 2836.14 679.75C2837.89 682.047 2839.18 684.764 2840.03 687.901C2840.87 691.007 2841.29 694.403 2841.29 698.091V702.118H2802.08V694.791H2832.31V694.112C2832.18 691.783 2831.7 689.519 2830.85 687.319C2830.05 685.12 2828.75 683.308 2826.97 681.885C2825.19 680.462 2822.77 679.75 2819.7 679.75C2817.66 679.75 2815.78 680.187 2814.07 681.06C2812.35 681.901 2810.88 683.163 2809.65 684.845C2808.42 686.527 2807.47 688.581 2806.79 691.007C2806.11 693.433 2805.77 696.231 2805.77 699.401V701.439C2805.77 703.93 2806.11 706.275 2806.79 708.474C2807.5 710.642 2808.52 712.55 2809.85 714.2C2811.2 715.849 2812.84 717.143 2814.75 718.081C2816.69 719.019 2818.89 719.489 2821.34 719.489C2824.51 719.489 2827.2 718.842 2829.4 717.548C2831.6 716.254 2833.52 714.523 2835.17 712.356L2840.61 716.674C2839.48 718.389 2838.04 720.022 2836.29 721.575C2834.54 723.128 2832.39 724.389 2829.84 725.36C2827.31 726.33 2824.32 726.815 2820.86 726.815ZM2860.7 683.777V725.845H2851.67V673.345H2860.21L2860.7 683.777ZM2858.85 697.606L2854.68 697.46C2854.71 693.87 2855.18 690.554 2856.09 687.513C2856.99 684.44 2858.33 681.772 2860.11 679.507C2861.89 677.243 2864.11 675.496 2866.76 674.267C2869.41 673.006 2872.49 672.375 2875.98 672.375C2878.44 672.375 2880.7 672.731 2882.77 673.442C2884.84 674.122 2886.64 675.205 2888.16 676.693C2889.68 678.181 2890.86 680.09 2891.7 682.419C2892.54 684.748 2892.96 687.562 2892.96 690.861V725.845H2883.99V691.298C2883.99 688.548 2883.52 686.349 2882.58 684.699C2881.67 683.049 2880.38 681.853 2878.7 681.109C2877.01 680.332 2875.04 679.944 2872.78 679.944C2870.12 679.944 2867.91 680.413 2866.13 681.351C2864.35 682.289 2862.93 683.583 2861.86 685.233C2860.79 686.883 2860.02 688.775 2859.53 690.91C2859.08 693.012 2858.85 695.244 2858.85 697.606ZM2892.86 692.657L2886.85 694.5C2886.88 691.621 2887.35 688.856 2888.25 686.203C2889.19 683.551 2890.54 681.189 2892.28 679.119C2894.06 677.049 2896.24 675.415 2898.83 674.219C2901.42 672.989 2904.38 672.375 2907.71 672.375C2910.53 672.375 2913.02 672.747 2915.18 673.491C2917.38 674.235 2919.23 675.383 2920.72 676.936C2922.24 678.456 2923.38 680.413 2924.16 682.807C2924.94 685.2 2925.32 688.047 2925.32 691.346V725.845H2916.3V691.249C2916.3 688.306 2915.83 686.025 2914.89 684.408C2913.99 682.758 2912.69 681.61 2911.01 680.963C2909.36 680.284 2907.39 679.944 2905.09 679.944C2903.12 679.944 2901.37 680.284 2899.85 680.963C2898.33 681.642 2897.05 682.58 2896.02 683.777C2894.98 684.942 2894.19 686.284 2893.64 687.804C2893.12 689.325 2892.86 690.942 2892.86 692.657Z" fill="black"/>
<path d="M868 553H2925" stroke="black" stroke-width="20.8982"/>
<path d="M357 4L285.5 196L357 258.5V4Z" fill="black"/>
<path d="M357 4V258.5C386.583 247.543 413.506 230.973 436.5 213.131L357 4Z" fill="url(#paint0_linear_431_90)"/>
<path d="M357 258.5L370 271.5C401.5 260 473.7 217 510.5 137C498.529 154.551 472.269 185.378 436.5 213.131C413.506 230.973 386.583 247.543 357 258.5Z" fill="black"/>
<path d="M357 4L285.5 196L357 258.5M357 4V258.5M357 4L436.5 213.131M357 258.5L370 271.5C401.5 260 473.7 217 510.5 137C498.529 154.551 472.269 185.378 436.5 213.131M357 258.5C386.583 247.543 413.506 230.973 436.5 213.131" stroke="black"/>
<path d="M9.75 201.935L140.277 359.856L230.153 329.185L9.75 201.935Z" fill="black"/>
<path d="M9.75 201.935L230.153 329.185C235.456 298.087 234.567 266.486 230.613 237.652L9.75 201.935Z" fill="url(#paint1_linear_431_90)"/>
<path d="M230.153 329.185L247.912 324.427C253.703 291.397 252.563 207.37 201.681 135.5C210.895 154.643 224.462 192.798 230.613 237.652C234.567 266.486 235.456 298.087 230.153 329.185Z" fill="black"/>
<path d="M9.75 201.935L140.277 359.856L230.153 329.185M9.75 201.935L230.153 329.185M9.75 201.935L230.613 237.652M230.153 329.185L247.912 324.427C253.703 291.397 252.563 207.37 201.681 135.5C210.895 154.643 224.462 192.798 230.613 237.652M230.153 329.185C235.456 298.087 234.567 266.486 230.613 237.652" stroke="black"/>
<path d="M8.75 606.685L210.777 572.606L229.153 479.435L8.75 606.685Z" fill="black"/>
<path d="M8.75 606.685L229.153 479.435C204.874 459.294 177.061 444.263 150.113 433.27L8.75 606.685Z" fill="url(#paint2_linear_431_90)"/>
<path d="M229.153 479.435L233.912 461.677C208.202 440.147 134.863 399.12 47.1814 407.25C68.3663 408.842 108.194 416.17 150.113 433.27C177.061 444.263 204.874 459.294 229.153 479.435Z" fill="black"/>
<path d="M8.75 606.685L210.777 572.606L229.153 479.435M8.75 606.685L229.153 479.435M8.75 606.685L150.113 433.27M229.153 479.435L233.912 461.677C208.202 440.147 134.863 399.12 47.1814 407.25C68.3663 408.842 108.194 416.17 150.113 433.27M229.153 479.435C204.874 459.294 177.061 444.263 150.113 433.27" stroke="black"/>
<path d="M358.5 806.5L430 614.5L358.5 552L358.5 806.5Z" fill="black"/>
<path d="M358.5 806.5L358.5 552C328.917 562.957 301.994 579.527 279 597.369L358.5 806.5Z" fill="url(#paint3_linear_431_90)"/>
<path d="M358.5 552L345.5 539C314 550.5 241.8 593.5 205 673.5C216.971 655.949 243.231 625.122 279 597.369C301.994 579.527 328.917 562.957 358.5 552Z" fill="black"/>
<path d="M358.5 806.5L430 614.5L358.5 552M358.5 806.5L358.5 552M358.5 806.5L279 597.369M358.5 552L345.5 539C314 550.5 241.8 593.5 205 673.5C216.971 655.949 243.231 625.122 279 597.369M358.5 552C328.917 562.957 301.994 579.527 279 597.369" stroke="black"/>
<path d="M706.412 608.671L575.885 450.75L486.008 481.421L706.412 608.671Z" fill="black"/>
<path d="M706.412 608.671L486.008 481.421C480.706 512.518 481.595 544.12 485.549 572.954L706.412 608.671Z" fill="url(#paint4_linear_431_90)"/>
<path d="M486.008 481.421L468.25 486.179C462.459 519.209 463.598 603.236 514.48 675.106C505.267 655.963 491.7 617.807 485.549 572.954C481.595 544.12 480.706 512.518 486.008 481.421Z" fill="black"/>
<path d="M706.412 608.671L575.885 450.75L486.008 481.421M706.412 608.671L486.008 481.421M706.412 608.671L485.549 572.954M486.008 481.421L468.25 486.179C462.459 519.209 463.598 603.236 514.48 675.106C505.267 655.963 491.7 617.807 485.549 572.954M486.008 481.421C480.706 512.518 481.595 544.12 485.549 572.954" stroke="black"/>
<path d="M707.412 201.921L505.385 236L487.008 329.171L707.412 201.921Z" fill="black"/>
<path d="M707.412 201.921L487.008 329.171C511.288 349.312 539.101 364.343 566.049 375.336L707.412 201.921Z" fill="url(#paint5_linear_431_90)"/>
<path d="M487.008 329.171L482.25 346.929C507.959 368.459 581.298 409.486 668.98 401.356C647.796 399.764 607.968 392.435 566.049 375.336C539.101 364.343 511.288 349.312 487.008 329.171Z" fill="black"/>
<path d="M707.412 201.921L505.385 236L487.008 329.171M707.412 201.921L487.008 329.171M707.412 201.921L566.049 375.336M487.008 329.171L482.25 346.929C507.959 368.459 581.298 409.486 668.98 401.356C647.796 399.764 607.968 392.435 566.049 375.336M487.008 329.171C511.288 349.312 539.101 364.343 566.049 375.336" stroke="black"/>
</g>
<defs>
<linearGradient id="paint0_linear_431_90" x1="398" y1="4" x2="398" y2="271.5" gradientUnits="userSpaceOnUse">
<stop stop-opacity="0"/>
<stop offset="1"/>
</linearGradient>
<linearGradient id="paint1_linear_431_90" x1="30.25" y1="166.428" x2="261.912" y2="300.178" gradientUnits="userSpaceOnUse">
<stop stop-opacity="0"/>
<stop offset="1"/>
</linearGradient>
<linearGradient id="paint2_linear_431_90" x1="-11.75" y1="571.178" x2="219.912" y2="437.428" gradientUnits="userSpaceOnUse">
<stop stop-opacity="0"/>
<stop offset="1"/>
</linearGradient>
<linearGradient id="paint3_linear_431_90" x1="317.5" y1="806.5" x2="317.5" y2="539" gradientUnits="userSpaceOnUse">
<stop stop-opacity="0"/>
<stop offset="1"/>
</linearGradient>
<linearGradient id="paint4_linear_431_90" x1="685.912" y1="644.178" x2="454.25" y2="510.428" gradientUnits="userSpaceOnUse">
<stop stop-opacity="0"/>
<stop offset="1"/>
</linearGradient>
<linearGradient id="paint5_linear_431_90" x1="727.912" y1="237.428" x2="496.25" y2="371.178" gradientUnits="userSpaceOnUse">
<stop stop-opacity="0"/>
<stop offset="1"/>
</linearGradient>
<clipPath id="clip0_431_90">
<rect width="2945" height="809" fill="white"/>
</clipPath>
</defs>
</svg>
