<svg width="2901" height="1050" viewBox="0 0 2901 1050" fill="none" xmlns="http://www.w3.org/2000/svg">
<path d="M524 123L452.5 315L524 377.5V123Z" fill="#1358AA"/>
<path d="M524 123V377.5C553.583 366.543 580.506 349.973 603.5 332.131L524 123Z" fill="url(#paint0_linear_306_103)"/>
<path d="M524 377.5L537 390.5C568.5 379 640.7 336 677.5 256C665.529 273.551 639.269 304.378 603.5 332.131C580.506 349.973 553.583 366.543 524 377.5Z" fill="#1358AA"/>
<path d="M524 123L452.5 315L524 377.5M524 123V377.5M524 123L603.5 332.131M524 377.5L537 390.5C568.5 379 640.7 336 677.5 256C665.529 273.551 639.269 304.378 603.5 332.131M524 377.5C553.583 366.543 580.506 349.973 603.5 332.131" stroke="white"/>
<path d="M176.75 320.935L307.277 478.856L397.153 448.185L176.75 320.935Z" fill="#1358AA"/>
<path d="M176.75 320.935L397.153 448.185C402.456 417.087 401.567 385.486 397.613 356.652L176.75 320.935Z" fill="url(#paint1_linear_306_103)"/>
<path d="M397.153 448.185L414.912 443.427C420.703 410.397 419.563 326.37 368.681 254.5C377.895 273.643 391.462 311.798 397.613 356.652C401.567 385.486 402.456 417.087 397.153 448.185Z" fill="#1358AA"/>
<path d="M176.75 320.935L307.277 478.856L397.153 448.185M176.75 320.935L397.153 448.185M176.75 320.935L397.613 356.652M397.153 448.185L414.912 443.427C420.703 410.397 419.563 326.37 368.681 254.5C377.895 273.643 391.462 311.798 397.613 356.652M397.153 448.185C402.456 417.087 401.567 385.486 397.613 356.652" stroke="white"/>
<path d="M175.75 725.685L377.777 691.606L396.153 598.435L175.75 725.685Z" fill="#1358AA"/>
<path d="M175.75 725.685L396.153 598.435C371.874 578.294 344.061 563.263 317.113 552.27L175.75 725.685Z" fill="url(#paint2_linear_306_103)"/>
<path d="M396.153 598.435L400.912 580.677C375.202 559.147 301.863 518.12 214.181 526.25C235.366 527.842 275.194 535.17 317.113 552.27C344.061 563.263 371.874 578.294 396.153 598.435Z" fill="#1358AA"/>
<path d="M175.75 725.685L377.777 691.606L396.153 598.435M175.75 725.685L396.153 598.435M175.75 725.685L317.113 552.27M396.153 598.435L400.912 580.677C375.202 559.147 301.863 518.12 214.181 526.25C235.366 527.842 275.194 535.17 317.113 552.27M396.153 598.435C371.874 578.294 344.061 563.263 317.113 552.27" stroke="white"/>
<path d="M525.5 925.5L597 733.5L525.5 671L525.5 925.5Z" fill="#1358AA"/>
<path d="M525.5 925.5L525.5 671C495.917 681.957 468.994 698.527 446 716.369L525.5 925.5Z" fill="url(#paint3_linear_306_103)"/>
<path d="M525.5 671L512.5 658C481 669.5 408.8 712.5 372 792.5C383.971 774.949 410.231 744.122 446 716.369C468.994 698.527 495.917 681.957 525.5 671Z" fill="#1358AA"/>
<path d="M525.5 925.5L597 733.5L525.5 671M525.5 925.5L525.5 671M525.5 925.5L446 716.369M525.5 671L512.5 658C481 669.5 408.8 712.5 372 792.5C383.971 774.949 410.231 744.122 446 716.369M525.5 671C495.917 681.957 468.994 698.527 446 716.369" stroke="white"/>
<path d="M873.412 727.671L742.885 569.75L653.008 600.421L873.412 727.671Z" fill="#1358AA"/>
<path d="M873.412 727.671L653.008 600.421C647.706 631.518 648.595 663.12 652.549 691.954L873.412 727.671Z" fill="url(#paint4_linear_306_103)"/>
<path d="M653.008 600.421L635.25 605.179C629.459 638.209 630.598 722.236 681.48 794.106C672.267 774.963 658.7 736.807 652.549 691.954C648.595 663.12 647.706 631.518 653.008 600.421Z" fill="#1358AA"/>
<path d="M873.412 727.671L742.885 569.75L653.008 600.421M873.412 727.671L653.008 600.421M873.412 727.671L652.549 691.954M653.008 600.421L635.25 605.179C629.459 638.209 630.598 722.236 681.48 794.106C672.267 774.963 658.7 736.807 652.549 691.954M653.008 600.421C647.706 631.518 648.595 663.12 652.549 691.954" stroke="white"/>
<path d="M874.412 320.921L672.385 355L654.008 448.171L874.412 320.921Z" fill="#1358AA"/>
<path d="M874.412 320.921L654.008 448.171C678.288 468.312 706.101 483.343 733.049 494.336L874.412 320.921Z" fill="url(#paint5_linear_306_103)"/>
<path d="M654.008 448.171L649.25 465.929C674.959 487.459 748.298 528.486 835.98 520.356C814.796 518.764 774.968 511.435 733.049 494.336C706.101 483.343 678.288 468.312 654.008 448.171Z" fill="#1358AA"/>
<path d="M874.412 320.921L672.385 355L654.008 448.171M874.412 320.921L654.008 448.171M874.412 320.921L733.049 494.336M654.008 448.171L649.25 465.929C674.959 487.459 748.298 528.486 835.98 520.356C814.796 518.764 774.968 511.435 733.049 494.336M654.008 448.171C678.288 468.312 706.101 483.343 733.049 494.336" stroke="white"/>
<path d="M1089.93 578V357.098H1124.01V578H1089.93ZM1105.07 483.959V451.139H1219V483.959H1105.07ZM1105.07 389.918V357.098H1233.2V389.918H1105.07ZM1448.35 581.156C1432.78 581.156 1418.37 578.316 1405.11 572.635C1392.07 566.955 1380.6 559.066 1370.72 548.967C1361.04 538.658 1353.46 526.667 1347.99 512.992C1342.74 499.106 1340.11 483.959 1340.11 467.549C1340.11 451.139 1342.74 436.097 1347.99 422.422C1353.46 408.537 1361.04 396.545 1370.72 386.446C1380.6 376.138 1392.07 368.143 1405.11 362.463C1418.37 356.782 1432.78 353.942 1448.35 353.942C1463.92 353.942 1478.22 356.782 1491.27 362.463C1504.52 368.143 1515.99 376.138 1525.66 386.446C1535.55 396.755 1543.12 408.852 1548.38 422.737C1553.85 436.412 1556.59 451.349 1556.59 467.549C1556.59 483.748 1553.85 498.791 1548.38 512.676C1543.12 526.351 1535.55 538.343 1525.66 548.652C1515.99 558.96 1504.52 566.955 1491.27 572.635C1478.22 578.316 1463.92 581.156 1448.35 581.156ZM1448.35 548.02C1459.08 548.02 1468.86 546.022 1477.7 542.025C1486.74 538.027 1494.53 532.452 1501.05 525.299C1507.57 517.936 1512.62 509.415 1516.2 499.738C1519.98 489.85 1521.88 479.12 1521.88 467.549C1521.88 455.978 1519.98 445.354 1516.2 435.676C1512.62 425.788 1507.57 417.267 1501.05 410.114C1494.53 402.751 1486.74 397.071 1477.7 393.073C1468.86 389.076 1459.08 387.077 1448.35 387.077C1437.62 387.077 1427.73 389.076 1418.68 393.073C1409.85 397.071 1402.06 402.646 1395.33 409.799C1388.81 416.952 1383.76 425.472 1380.18 435.36C1376.61 445.038 1374.82 455.768 1374.82 467.549C1374.82 479.12 1376.61 489.85 1380.18 499.738C1383.76 509.626 1388.81 518.146 1395.33 525.299C1402.06 532.452 1409.85 538.027 1418.68 542.025C1427.73 546.022 1437.62 548.02 1448.35 548.02ZM1681.63 578V357.098H1775.67C1788.29 357.098 1799.86 360.254 1810.38 366.565C1821.11 372.666 1829.63 381.082 1835.94 391.811C1842.26 402.33 1845.41 414.217 1845.41 427.471C1845.41 439.463 1842.26 450.613 1835.94 460.922C1829.63 471.231 1821.22 479.541 1810.7 485.852C1800.18 491.953 1788.5 495.004 1775.67 495.004H1715.71V578H1681.63ZM1812.91 578L1756.73 478.278L1791.76 470.389L1854.25 578.316L1812.91 578ZM1715.71 462.184H1778.83C1784.93 462.184 1790.4 460.712 1795.24 457.766C1800.07 454.61 1803.86 450.403 1806.6 445.143C1809.33 439.673 1810.7 433.677 1810.7 427.155C1810.7 419.792 1808.91 413.375 1805.33 407.905C1801.97 402.225 1797.13 397.807 1790.82 394.651C1784.72 391.496 1777.77 389.918 1769.99 389.918H1715.71V462.184ZM2066.49 581.156C2051.13 581.156 2037.03 578.421 2024.2 572.951C2011.37 567.481 2000.22 559.697 1990.75 549.598C1981.28 539.29 1973.92 527.193 1968.66 513.307C1963.61 499.422 1961.08 484.169 1961.08 467.549C1961.08 451.77 1963.82 437.149 1969.29 423.684C1974.97 410.009 1982.75 398.017 1992.64 387.709C2002.53 377.4 2014 369.405 2027.04 363.725C2040.08 358.045 2054.18 355.204 2069.33 355.204C2080.06 355.204 2090.47 356.888 2100.57 360.254C2110.88 363.409 2120.13 367.933 2128.34 373.823C2136.75 379.504 2143.59 386.026 2148.85 393.389L2126.13 417.057C2120.03 410.956 2113.82 405.907 2107.51 401.909C2101.41 397.702 2095.1 394.546 2088.58 392.442C2082.26 390.338 2075.85 389.287 2069.33 389.287C2059.02 389.287 2049.34 391.285 2040.29 395.282C2031.46 399.069 2023.67 404.434 2016.94 411.377C2010.42 418.319 2005.26 426.629 2001.48 436.307C1997.69 445.774 1995.8 456.188 1995.8 467.549C1995.8 479.541 1997.59 490.481 2001.16 500.369C2004.95 510.046 2010.21 518.356 2016.94 525.299C2023.67 532.242 2031.67 537.606 2040.92 541.393C2050.39 544.97 2060.81 546.758 2072.17 546.758C2079.11 546.758 2085.95 545.811 2092.68 543.918C2099.41 542.025 2105.72 539.29 2111.61 535.713C2117.5 532.137 2122.87 527.929 2127.71 523.09L2144.75 550.861C2139.91 556.541 2133.28 561.695 2124.87 566.324C2116.66 570.952 2107.41 574.634 2097.1 577.369C2087 579.893 2076.79 581.156 2066.49 581.156ZM2269.94 578V357.098H2409.11V389.918H2304.02V545.18H2409.11V578H2269.94ZM2285.4 481.119V448.299H2391.75V481.119H2285.4ZM2610.84 581.156C2598.85 581.156 2587.7 579.578 2577.39 576.422C2567.29 573.266 2558.04 568.533 2549.62 562.221C2541.42 555.699 2534.05 547.705 2527.53 538.238L2550.88 511.414C2561.19 526.141 2571.08 536.344 2580.55 542.025C2590.01 547.705 2601.27 550.545 2614.31 550.545C2622.31 550.545 2629.57 549.283 2636.09 546.758C2642.61 544.234 2647.76 540.762 2651.55 536.344C2655.34 531.926 2657.23 526.877 2657.23 521.197C2657.23 517.41 2656.6 513.833 2655.34 510.467C2654.08 507.101 2652.08 504.05 2649.34 501.315C2646.82 498.58 2643.45 496.056 2639.24 493.742C2635.25 491.427 2630.51 489.429 2625.04 487.746C2619.57 485.852 2613.26 484.274 2606.11 483.012C2594.75 480.698 2584.86 477.647 2576.44 473.86C2568.03 470.074 2560.98 465.34 2555.3 459.66C2549.62 453.979 2545.41 447.563 2542.68 440.41C2539.94 433.046 2538.58 424.841 2538.58 415.795C2538.58 406.959 2540.47 398.754 2544.26 391.18C2548.25 383.606 2553.62 377.084 2560.35 371.614C2567.29 365.934 2575.39 361.621 2584.65 358.676C2593.91 355.52 2603.9 353.942 2614.63 353.942C2625.99 353.942 2636.4 355.415 2645.87 358.36C2655.34 361.306 2663.75 365.724 2671.12 371.614C2678.48 377.295 2684.58 384.343 2689.42 392.758L2665.44 416.426C2661.23 409.483 2656.5 403.698 2651.24 399.069C2645.98 394.231 2640.19 390.654 2633.88 388.34C2627.57 385.815 2620.84 384.553 2613.68 384.553C2605.48 384.553 2598.32 385.815 2592.22 388.34C2586.12 390.864 2581.28 394.441 2577.71 399.069C2574.34 403.487 2572.66 408.747 2572.66 414.848C2572.66 419.266 2573.5 423.369 2575.18 427.155C2576.87 430.732 2579.39 433.993 2582.76 436.938C2586.33 439.673 2591.07 442.198 2596.96 444.512C2602.85 446.616 2609.9 448.509 2618.1 450.192C2629.67 452.717 2639.98 455.978 2649.03 459.975C2658.07 463.762 2665.75 468.285 2672.06 473.545C2678.37 478.804 2683.11 484.695 2686.26 491.217C2689.63 497.739 2691.31 504.787 2691.31 512.361C2691.31 526.456 2688.05 538.658 2681.53 548.967C2675.01 559.276 2665.75 567.27 2653.76 572.951C2641.77 578.421 2627.46 581.156 2610.84 581.156Z" fill="black"/>
<path d="M1087.9 754V704.719H1095.5V754H1087.9ZM1091.28 733.02V725.699H1116.69V733.02H1091.28ZM1091.28 712.041V704.719H1119.86V712.041H1091.28ZM1129.62 754V717.039H1136.87V754H1129.62ZM1133.14 708.873C1131.59 708.873 1130.39 708.474 1129.55 707.676C1128.7 706.878 1128.28 705.752 1128.28 704.297C1128.28 702.936 1128.7 701.833 1129.55 700.988C1130.44 700.143 1131.63 699.721 1133.14 699.721C1134.69 699.721 1135.88 700.12 1136.73 700.918C1137.57 701.715 1137.99 702.842 1137.99 704.297C1137.99 705.658 1137.55 706.761 1136.66 707.606C1135.81 708.45 1134.64 708.873 1133.14 708.873ZM1167.44 754.704C1165.85 754.704 1164.25 754.446 1162.66 753.93C1161.11 753.413 1159.68 752.733 1158.36 751.888C1157.1 750.996 1156.02 750.034 1155.12 749.002C1154.28 747.922 1153.72 746.843 1153.43 745.763L1155.26 744.777V753.789H1148.01V701.903H1155.26V725.488L1154.14 724.854C1154.37 723.774 1154.89 722.742 1155.69 721.756C1156.49 720.724 1157.49 719.809 1158.71 719.011C1159.98 718.166 1161.34 717.509 1162.8 717.039C1164.25 716.523 1165.73 716.265 1167.23 716.265C1170.57 716.265 1173.52 717.086 1176.1 718.729C1178.69 720.372 1180.73 722.648 1182.23 725.558C1183.73 728.421 1184.48 731.706 1184.48 735.414C1184.48 739.122 1183.73 742.431 1182.23 745.341C1180.77 748.251 1178.76 750.55 1176.17 752.24C1173.59 753.883 1170.68 754.704 1167.44 754.704ZM1166.25 748.086C1168.41 748.086 1170.33 747.547 1172.02 746.467C1173.71 745.341 1175.05 743.839 1176.03 741.961C1177.02 740.037 1177.51 737.855 1177.51 735.414C1177.51 733.02 1177.02 730.885 1176.03 729.008C1175.09 727.083 1173.78 725.581 1172.09 724.502C1170.4 723.422 1168.45 722.883 1166.25 722.883C1164.04 722.883 1162.09 723.422 1160.4 724.502C1158.71 725.581 1157.38 727.083 1156.39 729.008C1155.41 730.885 1154.91 733.02 1154.91 735.414C1154.91 737.855 1155.41 740.037 1156.39 741.961C1157.38 743.839 1158.71 745.341 1160.4 746.467C1162.09 747.547 1164.04 748.086 1166.25 748.086ZM1209.61 754.704C1205.8 754.704 1202.43 753.906 1199.47 752.31C1196.56 750.668 1194.26 748.438 1192.57 745.622C1190.93 742.806 1190.11 739.568 1190.11 735.907C1190.11 732.997 1190.57 730.345 1191.51 727.952C1192.45 725.558 1193.74 723.493 1195.39 721.756C1197.07 719.973 1199.07 718.612 1201.37 717.673C1203.72 716.687 1206.25 716.195 1208.97 716.195C1211.37 716.195 1213.6 716.664 1215.66 717.603C1217.73 718.494 1219.51 719.738 1221.01 721.334C1222.56 722.93 1223.73 724.83 1224.53 727.036C1225.38 729.195 1225.78 731.566 1225.73 734.147L1225.66 737.245H1195.46L1193.84 731.472H1219.39L1218.34 732.668V730.979C1218.2 729.43 1217.68 728.045 1216.79 726.825C1215.9 725.605 1214.77 724.643 1213.41 723.939C1212.05 723.235 1210.57 722.883 1208.97 722.883C1206.44 722.883 1204.3 723.376 1202.57 724.361C1200.83 725.3 1199.52 726.708 1198.62 728.585C1197.73 730.416 1197.29 732.692 1197.29 735.414C1197.29 737.995 1197.83 740.248 1198.91 742.173C1199.98 744.05 1201.51 745.505 1203.48 746.537C1205.45 747.57 1207.73 748.086 1210.31 748.086C1212.14 748.086 1213.83 747.781 1215.38 747.171C1216.98 746.561 1218.69 745.458 1220.52 743.862L1224.18 749.002C1223.05 750.128 1221.67 751.114 1220.03 751.958C1218.43 752.803 1216.72 753.484 1214.89 754C1213.1 754.469 1211.34 754.704 1209.61 754.704ZM1233.61 754V717.039H1240.93V728.656L1240.23 725.84C1240.74 724.056 1241.61 722.437 1242.83 720.982C1244.1 719.527 1245.53 718.377 1247.13 717.532C1248.77 716.687 1250.46 716.265 1252.19 716.265C1252.99 716.265 1253.74 716.335 1254.45 716.476C1255.2 716.617 1255.79 716.781 1256.21 716.969L1254.31 724.854C1253.74 724.619 1253.11 724.432 1252.41 724.291C1251.75 724.103 1251.09 724.009 1250.43 724.009C1249.17 724.009 1247.95 724.267 1246.77 724.784C1245.65 725.253 1244.64 725.933 1243.75 726.825C1242.9 727.67 1242.22 728.679 1241.7 729.852C1241.19 730.979 1240.93 732.223 1240.93 733.584V754H1233.61ZM1304.19 754.704C1300.72 754.704 1297.5 754.07 1294.55 752.803C1291.64 751.536 1289.08 749.776 1286.87 747.523C1284.71 745.223 1283.03 742.548 1281.8 739.497C1280.63 736.4 1280.04 733.02 1280.04 729.36C1280.04 725.699 1280.63 722.343 1281.8 719.292C1283.03 716.195 1284.71 713.519 1286.87 711.267C1289.08 708.967 1291.64 707.183 1294.55 705.916C1297.5 704.649 1300.72 704.015 1304.19 704.015C1307.67 704.015 1310.86 704.649 1313.77 705.916C1316.72 707.183 1319.28 708.967 1321.44 711.267C1323.65 713.566 1325.34 716.265 1326.51 719.363C1327.73 722.413 1328.34 725.746 1328.34 729.36C1328.34 732.974 1327.73 736.329 1326.51 739.427C1325.34 742.478 1323.65 745.153 1321.44 747.453C1319.28 749.752 1316.72 751.536 1313.77 752.803C1310.86 754.07 1307.67 754.704 1304.19 754.704ZM1304.19 747.312C1306.59 747.312 1308.77 746.866 1310.74 745.974C1312.76 745.083 1314.49 743.839 1315.95 742.243C1317.4 740.6 1318.53 738.699 1319.33 736.541C1320.17 734.335 1320.6 731.941 1320.6 729.36C1320.6 726.778 1320.17 724.408 1319.33 722.249C1318.53 720.043 1317.4 718.142 1315.95 716.547C1314.49 714.904 1312.76 713.637 1310.74 712.745C1308.77 711.853 1306.59 711.407 1304.19 711.407C1301.8 711.407 1299.59 711.853 1297.57 712.745C1295.6 713.637 1293.87 714.88 1292.37 716.476C1290.91 718.072 1289.78 719.973 1288.99 722.179C1288.19 724.338 1287.79 726.731 1287.79 729.36C1287.79 731.941 1288.19 734.335 1288.99 736.541C1289.78 738.746 1290.91 740.647 1292.37 742.243C1293.87 743.839 1295.6 745.083 1297.57 745.974C1299.59 746.866 1301.8 747.312 1304.19 747.312ZM1336.8 769.488V717.039H1344.13V725.488L1343 724.854C1343.28 723.446 1344.08 722.108 1345.39 720.841C1346.71 719.527 1348.3 718.471 1350.18 717.673C1352.1 716.828 1354.08 716.406 1356.09 716.406C1359.43 716.406 1362.38 717.227 1364.96 718.87C1367.55 720.513 1369.59 722.765 1371.09 725.628C1372.59 728.491 1373.34 731.777 1373.34 735.484C1373.34 739.145 1372.59 742.431 1371.09 745.341C1369.63 748.204 1367.62 750.48 1365.04 752.17C1362.45 753.812 1359.54 754.634 1356.31 754.634C1354.15 754.634 1352.06 754.211 1350.04 753.366C1348.02 752.475 1346.31 751.348 1344.9 749.987C1343.49 748.626 1342.62 747.218 1342.3 745.763L1344.13 744.777V769.488H1336.8ZM1355.11 747.946C1357.27 747.946 1359.19 747.406 1360.88 746.326C1362.57 745.247 1363.91 743.768 1364.89 741.891C1365.88 740.014 1366.37 737.878 1366.37 735.484C1366.37 733.091 1365.88 730.979 1364.89 729.148C1363.96 727.271 1362.64 725.793 1360.95 724.713C1359.26 723.634 1357.31 723.094 1355.11 723.094C1352.9 723.094 1350.95 723.634 1349.27 724.713C1347.58 725.746 1346.24 727.201 1345.25 729.078C1344.27 730.955 1343.77 733.091 1343.77 735.484C1343.77 737.878 1344.27 740.014 1345.25 741.891C1346.24 743.768 1347.58 745.247 1349.27 746.326C1350.95 747.406 1352.9 747.946 1355.11 747.946ZM1385.79 754V707.606H1393.04V754H1385.79ZM1378.12 724.08V717.039H1401.63V724.08H1378.12ZM1409.43 754V717.039H1416.68V754H1409.43ZM1412.95 708.873C1411.4 708.873 1410.21 708.474 1409.36 707.676C1408.52 706.878 1408.1 705.752 1408.1 704.297C1408.1 702.936 1408.52 701.833 1409.36 700.988C1410.25 700.143 1411.45 699.721 1412.95 699.721C1414.5 699.721 1415.7 700.12 1416.54 700.918C1417.39 701.715 1417.81 702.842 1417.81 704.297C1417.81 705.658 1417.37 706.761 1416.47 707.606C1415.63 708.45 1414.46 708.873 1412.95 708.873ZM1443.53 754.704C1440.1 754.704 1437.03 753.859 1434.31 752.17C1431.63 750.48 1429.5 748.18 1427.9 745.27C1426.35 742.36 1425.58 739.098 1425.58 735.484C1425.58 731.871 1426.35 728.609 1427.9 725.699C1429.5 722.789 1431.63 720.489 1434.31 718.799C1437.03 717.11 1440.1 716.265 1443.53 716.265C1446.82 716.265 1449.8 716.946 1452.47 718.307C1455.19 719.621 1457.26 721.428 1458.67 723.728L1454.65 728.656C1453.9 727.576 1452.94 726.59 1451.77 725.699C1450.59 724.807 1449.35 724.103 1448.04 723.587C1446.72 723.07 1445.45 722.812 1444.23 722.812C1441.98 722.812 1439.96 723.376 1438.18 724.502C1436.44 725.581 1435.06 727.083 1434.03 729.008C1432.99 730.932 1432.48 733.091 1432.48 735.484C1432.48 737.878 1433.02 740.037 1434.1 741.961C1435.18 743.839 1436.61 745.341 1438.39 746.467C1440.17 747.593 1442.15 748.157 1444.3 748.157C1445.57 748.157 1446.79 747.946 1447.97 747.523C1449.19 747.101 1450.36 746.467 1451.49 745.622C1452.61 744.777 1453.67 743.745 1454.65 742.525L1458.67 747.453C1457.16 749.565 1455.01 751.301 1452.19 752.662C1449.42 754.023 1446.53 754.704 1443.53 754.704ZM1487.07 754V704.719H1508.05C1510.86 704.719 1513.45 705.423 1515.79 706.831C1518.19 708.192 1520.09 710.07 1521.49 712.463C1522.9 714.81 1523.61 717.462 1523.61 720.419C1523.61 723.094 1522.9 725.581 1521.49 727.881C1520.09 730.181 1518.21 732.035 1515.86 733.443C1513.52 734.804 1510.91 735.484 1508.05 735.484H1494.67V754H1487.07ZM1516.36 754L1503.82 731.753L1511.64 729.993L1525.58 754.07L1516.36 754ZM1494.67 728.163H1508.75C1510.11 728.163 1511.33 727.834 1512.41 727.177C1513.49 726.473 1514.34 725.534 1514.95 724.361C1515.56 723.141 1515.86 721.803 1515.86 720.348C1515.86 718.706 1515.46 717.274 1514.67 716.054C1513.91 714.787 1512.84 713.801 1511.43 713.097C1510.07 712.393 1508.52 712.041 1506.78 712.041H1494.67V728.163ZM1550.06 754.704C1546.26 754.704 1542.88 753.906 1539.92 752.31C1537.01 750.668 1534.71 748.438 1533.02 745.622C1531.38 742.806 1530.56 739.568 1530.56 735.907C1530.56 732.997 1531.03 730.345 1531.97 727.952C1532.91 725.558 1534.2 723.493 1535.84 721.756C1537.53 719.973 1539.53 718.612 1541.82 717.673C1544.17 716.687 1546.71 716.195 1549.43 716.195C1551.82 716.195 1554.05 716.664 1556.12 717.603C1558.18 718.494 1559.96 719.738 1561.47 721.334C1563.02 722.93 1564.19 724.83 1564.99 727.036C1565.83 729.195 1566.23 731.566 1566.18 734.147L1566.11 737.245H1535.91L1534.29 731.472H1559.85L1558.79 732.668V730.979C1558.65 729.43 1558.13 728.045 1557.24 726.825C1556.35 725.605 1555.22 724.643 1553.86 723.939C1552.5 723.235 1551.02 722.883 1549.43 722.883C1546.89 722.883 1544.76 723.376 1543.02 724.361C1541.29 725.3 1539.97 726.708 1539.08 728.585C1538.19 730.416 1537.74 732.692 1537.74 735.414C1537.74 737.995 1538.28 740.248 1539.36 742.173C1540.44 744.05 1541.97 745.505 1543.94 746.537C1545.91 747.57 1548.18 748.086 1550.77 748.086C1552.6 748.086 1554.29 747.781 1555.83 747.171C1557.43 746.561 1559.14 745.458 1560.97 743.862L1564.63 749.002C1563.51 750.128 1562.12 751.114 1560.48 751.958C1558.89 752.803 1557.17 753.484 1555.34 754C1553.56 754.469 1551.8 754.704 1550.06 754.704ZM1588.29 754.704C1585.23 754.704 1582.44 753.859 1579.91 752.17C1577.42 750.48 1575.43 748.18 1573.92 745.27C1572.42 742.36 1571.67 739.075 1571.67 735.414C1571.67 731.706 1572.42 728.421 1573.92 725.558C1575.47 722.648 1577.54 720.372 1580.12 718.729C1582.75 717.086 1585.68 716.265 1588.92 716.265C1590.84 716.265 1592.6 716.547 1594.2 717.11C1595.79 717.673 1597.18 718.471 1598.35 719.503C1599.57 720.489 1600.56 721.639 1601.31 722.953C1602.11 724.267 1602.6 725.675 1602.79 727.177L1601.17 726.614V717.039H1608.49V754H1601.17V745.2L1602.86 744.707C1602.58 745.974 1601.99 747.218 1601.1 748.438C1600.25 749.612 1599.15 750.668 1597.79 751.606C1596.48 752.545 1595 753.296 1593.35 753.859C1591.76 754.422 1590.07 754.704 1588.29 754.704ZM1590.19 748.016C1592.39 748.016 1594.34 747.476 1596.03 746.397C1597.72 745.317 1599.03 743.839 1599.97 741.961C1600.96 740.037 1601.45 737.855 1601.45 735.414C1601.45 733.02 1600.96 730.885 1599.97 729.008C1599.03 727.13 1597.72 725.652 1596.03 724.572C1594.34 723.493 1592.39 722.953 1590.19 722.953C1588.03 722.953 1586.1 723.493 1584.41 724.572C1582.77 725.652 1581.46 727.13 1580.47 729.008C1579.53 730.885 1579.06 733.02 1579.06 735.414C1579.06 737.855 1579.53 740.037 1580.47 741.961C1581.46 743.839 1582.77 745.317 1584.41 746.397C1586.1 747.476 1588.03 748.016 1590.19 748.016ZM1634.03 754.704C1630.65 754.704 1627.63 753.883 1624.95 752.24C1622.32 750.55 1620.23 748.274 1618.69 745.411C1617.14 742.501 1616.36 739.192 1616.36 735.484C1616.36 731.777 1617.11 728.491 1618.62 725.628C1620.16 722.718 1622.25 720.442 1624.88 718.799C1627.51 717.11 1630.49 716.265 1633.82 716.265C1635.65 716.265 1637.41 716.57 1639.1 717.18C1640.84 717.743 1642.39 718.541 1643.75 719.574C1645.11 720.559 1646.17 721.662 1646.92 722.883C1647.71 724.056 1648.11 725.253 1648.11 726.473L1646 726.614V701.903H1653.25V754H1646V745.2H1647.41C1647.41 746.326 1647.03 747.453 1646.28 748.579C1645.53 749.659 1644.52 750.668 1643.26 751.606C1642.04 752.545 1640.6 753.296 1638.96 753.859C1637.37 754.422 1635.72 754.704 1634.03 754.704ZM1635.02 748.438C1637.22 748.438 1639.17 747.875 1640.86 746.749C1642.55 745.622 1643.87 744.097 1644.8 742.173C1645.79 740.201 1646.28 737.972 1646.28 735.484C1646.28 732.997 1645.79 730.791 1644.8 728.867C1643.87 726.896 1642.55 725.347 1640.86 724.22C1639.17 723.094 1637.22 722.531 1635.02 722.531C1632.81 722.531 1630.86 723.094 1629.18 724.22C1627.49 725.347 1626.15 726.896 1625.16 728.867C1624.22 730.791 1623.75 732.997 1623.75 735.484C1623.75 737.972 1624.22 740.201 1625.16 742.173C1626.15 744.097 1627.49 745.622 1629.18 746.749C1630.86 747.875 1632.81 748.438 1635.02 748.438ZM1664.43 754V717.039H1671.68V754H1664.43ZM1667.95 708.873C1666.4 708.873 1665.21 708.474 1664.36 707.676C1663.52 706.878 1663.09 705.752 1663.09 704.297C1663.09 702.936 1663.52 701.833 1664.36 700.988C1665.25 700.143 1666.45 699.721 1667.95 699.721C1669.5 699.721 1670.7 700.12 1671.54 700.918C1672.39 701.715 1672.81 702.842 1672.81 704.297C1672.81 705.658 1672.36 706.761 1671.47 707.606C1670.63 708.45 1669.45 708.873 1667.95 708.873ZM1682.83 754V717.039H1690.08V724.643L1688.81 725.488C1689.28 723.845 1690.2 722.343 1691.56 720.982C1692.92 719.574 1694.54 718.447 1696.42 717.603C1698.29 716.711 1700.22 716.265 1702.19 716.265C1705 716.265 1707.35 716.828 1709.23 717.955C1711.11 719.034 1712.51 720.7 1713.45 722.953C1714.39 725.206 1714.86 728.045 1714.86 731.472V754H1707.61V731.964C1707.61 729.852 1707.33 728.116 1706.76 726.755C1706.2 725.347 1705.33 724.338 1704.16 723.728C1702.99 723.07 1701.53 722.789 1699.8 722.883C1698.39 722.883 1697.1 723.117 1695.92 723.587C1694.75 724.009 1693.72 724.619 1692.83 725.417C1691.98 726.215 1691.3 727.154 1690.78 728.233C1690.31 729.266 1690.08 730.392 1690.08 731.612V754H1686.49C1685.88 754 1685.27 754 1684.66 754C1684.05 754 1683.44 754 1682.83 754ZM1741.95 754.704C1738.14 754.704 1734.77 753.906 1731.81 752.31C1728.9 750.668 1726.6 748.438 1724.91 745.622C1723.27 742.806 1722.45 739.568 1722.45 735.907C1722.45 732.997 1722.91 730.345 1723.85 727.952C1724.79 725.558 1726.08 723.493 1727.73 721.756C1729.41 719.973 1731.41 718.612 1733.71 717.673C1736.06 716.687 1738.59 716.195 1741.31 716.195C1743.71 716.195 1745.94 716.664 1748 717.603C1750.07 718.494 1751.85 719.738 1753.35 721.334C1754.9 722.93 1756.07 724.83 1756.87 727.036C1757.72 729.195 1758.12 731.566 1758.07 734.147L1758 737.245H1727.8L1726.18 731.472H1751.73L1750.68 732.668V730.979C1750.54 729.43 1750.02 728.045 1749.13 726.825C1748.24 725.605 1747.11 724.643 1745.75 723.939C1744.39 723.235 1742.91 722.883 1741.31 722.883C1738.78 722.883 1736.64 723.376 1734.91 724.361C1733.17 725.3 1731.86 726.708 1730.96 728.585C1730.07 730.416 1729.63 732.692 1729.63 735.414C1729.63 737.995 1730.17 740.248 1731.25 742.173C1732.32 744.05 1733.85 745.505 1735.82 746.537C1737.79 747.57 1740.07 748.086 1742.65 748.086C1744.48 748.086 1746.17 747.781 1747.72 747.171C1749.31 746.561 1751.03 745.458 1752.86 743.862L1756.52 749.002C1755.39 750.128 1754.01 751.114 1752.37 751.958C1750.77 752.803 1749.06 753.484 1747.23 754C1745.44 754.469 1743.68 754.704 1741.95 754.704ZM1778.27 754.704C1775.17 754.704 1772.38 754.164 1769.89 753.085C1767.4 752.005 1765.34 750.41 1763.7 748.298L1768.62 744.073C1770.03 745.716 1771.56 746.913 1773.2 747.664C1774.89 748.368 1776.79 748.72 1778.9 748.72C1779.75 748.72 1780.52 748.626 1781.23 748.438C1781.98 748.204 1782.61 747.875 1783.13 747.453C1783.69 747.03 1784.11 746.537 1784.39 745.974C1784.68 745.364 1784.82 744.707 1784.82 744.003C1784.82 742.783 1784.37 741.797 1783.48 741.046C1783.01 740.718 1782.26 740.366 1781.23 739.99C1780.24 739.568 1778.95 739.145 1777.35 738.723C1774.63 738.019 1772.4 737.221 1770.67 736.329C1768.93 735.438 1767.59 734.428 1766.65 733.302C1765.95 732.41 1765.43 731.448 1765.1 730.416C1764.78 729.336 1764.61 728.163 1764.61 726.896C1764.61 725.347 1764.94 723.939 1765.6 722.671C1766.3 721.357 1767.24 720.231 1768.41 719.292C1769.63 718.307 1771.04 717.556 1772.64 717.039C1774.28 716.523 1776.02 716.265 1777.85 716.265C1779.58 716.265 1781.3 716.5 1782.99 716.969C1784.72 717.438 1786.32 718.119 1787.77 719.011C1789.23 719.902 1790.45 720.958 1791.43 722.179L1787.28 726.755C1786.39 725.863 1785.4 725.089 1784.32 724.432C1783.29 723.728 1782.23 723.188 1781.16 722.812C1780.08 722.437 1779.09 722.249 1778.2 722.249C1777.21 722.249 1776.32 722.343 1775.52 722.531C1774.73 722.718 1774.04 723 1773.48 723.376C1772.97 723.751 1772.57 724.22 1772.28 724.784C1772 725.347 1771.86 725.98 1771.86 726.684C1771.91 727.294 1772.05 727.881 1772.28 728.444C1772.57 728.961 1772.94 729.407 1773.41 729.782C1773.93 730.157 1774.7 730.556 1775.73 730.979C1776.77 731.401 1778.08 731.8 1779.68 732.176C1782.02 732.786 1783.95 733.466 1785.45 734.217C1787 734.921 1788.22 735.743 1789.11 736.681C1790.05 737.573 1790.71 738.606 1791.08 739.779C1791.46 740.952 1791.65 742.266 1791.65 743.721C1791.65 745.833 1791.03 747.734 1789.81 749.424C1788.64 751.067 1787.05 752.357 1785.03 753.296C1783.01 754.235 1780.76 754.704 1778.27 754.704ZM1811.96 754.704C1808.86 754.704 1806.07 754.164 1803.58 753.085C1801.09 752.005 1799.03 750.41 1797.38 748.298L1802.31 744.073C1803.72 745.716 1805.25 746.913 1806.89 747.664C1808.58 748.368 1810.48 748.72 1812.59 748.72C1813.44 748.72 1814.21 748.626 1814.91 748.438C1815.66 748.204 1816.3 747.875 1816.81 747.453C1817.38 747.03 1817.8 746.537 1818.08 745.974C1818.36 745.364 1818.5 744.707 1818.5 744.003C1818.5 742.783 1818.06 741.797 1817.17 741.046C1816.7 740.718 1815.95 740.366 1814.91 739.99C1813.93 739.568 1812.64 739.145 1811.04 738.723C1808.32 738.019 1806.09 737.221 1804.35 736.329C1802.62 735.438 1801.28 734.428 1800.34 733.302C1799.64 732.41 1799.12 731.448 1798.79 730.416C1798.46 729.336 1798.3 728.163 1798.3 726.896C1798.3 725.347 1798.63 723.939 1799.28 722.671C1799.99 721.357 1800.93 720.231 1802.1 719.292C1803.32 718.307 1804.73 717.556 1806.32 717.039C1807.97 716.523 1809.7 716.265 1811.53 716.265C1813.27 716.265 1814.98 716.5 1816.67 716.969C1818.41 717.438 1820.01 718.119 1821.46 719.011C1822.92 719.902 1824.14 720.958 1825.12 722.179L1820.97 726.755C1820.08 725.863 1819.09 725.089 1818.01 724.432C1816.98 723.728 1815.92 723.188 1814.84 722.812C1813.76 722.437 1812.78 722.249 1811.89 722.249C1810.9 722.249 1810.01 722.343 1809.21 722.531C1808.41 722.718 1807.73 723 1807.17 723.376C1806.65 723.751 1806.25 724.22 1805.97 724.784C1805.69 725.347 1805.55 725.98 1805.55 726.684C1805.6 727.294 1805.74 727.881 1805.97 728.444C1806.25 728.961 1806.63 729.407 1807.1 729.782C1807.62 730.157 1808.39 730.556 1809.42 730.979C1810.46 731.401 1811.77 731.8 1813.36 732.176C1815.71 732.786 1817.64 733.466 1819.14 734.217C1820.69 734.921 1821.91 735.743 1822.8 736.681C1823.74 737.573 1824.39 738.606 1824.77 739.779C1825.15 740.952 1825.33 742.266 1825.33 743.721C1825.33 745.833 1824.72 747.734 1823.5 749.424C1822.33 751.067 1820.73 752.357 1818.72 753.296C1816.7 754.235 1814.44 754.704 1811.96 754.704ZM1874.88 754.704C1871.45 754.704 1868.31 754.094 1865.45 752.874C1862.58 751.653 1860.1 749.917 1857.98 747.664C1855.87 745.364 1854.23 742.665 1853.06 739.568C1851.93 736.47 1851.37 733.067 1851.37 729.36C1851.37 725.84 1851.98 722.578 1853.2 719.574C1854.46 716.523 1856.2 713.848 1858.41 711.548C1860.61 709.248 1863.17 707.465 1866.08 706.198C1868.99 704.93 1872.14 704.297 1875.51 704.297C1877.91 704.297 1880.23 704.672 1882.48 705.423C1884.78 706.127 1886.85 707.136 1888.68 708.45C1890.56 709.718 1892.08 711.173 1893.26 712.815L1888.19 718.095C1886.83 716.734 1885.44 715.608 1884.03 714.716C1882.67 713.777 1881.26 713.073 1879.81 712.604C1878.4 712.135 1876.97 711.9 1875.51 711.9C1873.21 711.9 1871.06 712.346 1869.04 713.238C1867.07 714.083 1865.33 715.279 1863.83 716.828C1862.37 718.377 1861.22 720.231 1860.38 722.39C1859.53 724.502 1859.11 726.825 1859.11 729.36C1859.11 732.035 1859.51 734.475 1860.31 736.681C1861.15 738.84 1862.33 740.694 1863.83 742.243C1865.33 743.792 1867.11 744.989 1869.18 745.833C1871.29 746.631 1873.61 747.03 1876.15 747.03C1877.7 747.03 1879.22 746.819 1880.72 746.397C1882.23 745.974 1883.63 745.364 1884.95 744.566C1886.26 743.768 1887.46 742.83 1888.54 741.75L1892.34 747.946C1891.26 749.213 1889.78 750.363 1887.9 751.395C1886.07 752.428 1884.01 753.249 1881.71 753.859C1879.46 754.422 1877.18 754.704 1874.88 754.704ZM1900.84 754V701.903H1908.09V724.643L1906.82 725.488C1907.29 723.845 1908.21 722.343 1909.57 720.982C1910.93 719.574 1912.55 718.447 1914.43 717.603C1916.3 716.711 1918.23 716.265 1920.2 716.265C1923.01 716.265 1925.36 716.828 1927.24 717.955C1929.12 719.034 1930.52 720.7 1931.46 722.953C1932.4 725.206 1932.87 728.045 1932.87 731.472V754H1925.62V731.964C1925.62 729.852 1925.34 728.116 1924.77 726.755C1924.21 725.347 1923.34 724.338 1922.17 723.728C1921 723.07 1919.54 722.789 1917.8 722.883C1916.4 722.883 1915.11 723.117 1913.93 723.587C1912.76 724.009 1911.73 724.619 1910.84 725.417C1909.99 726.215 1909.31 727.154 1908.79 728.233C1908.32 729.266 1908.09 730.392 1908.09 731.612V754H1904.5C1903.89 754 1903.28 754 1902.67 754C1902.06 754 1901.45 754 1900.84 754ZM1959.96 754.704C1956.15 754.704 1952.78 753.906 1949.82 752.31C1946.91 750.668 1944.61 748.438 1942.92 745.622C1941.28 742.806 1940.45 739.568 1940.45 735.907C1940.45 732.997 1940.92 730.345 1941.86 727.952C1942.8 725.558 1944.09 723.493 1945.73 721.756C1947.42 719.973 1949.42 718.612 1951.72 717.673C1954.07 716.687 1956.6 716.195 1959.32 716.195C1961.72 716.195 1963.95 716.664 1966.01 717.603C1968.08 718.494 1969.86 719.738 1971.36 721.334C1972.91 722.93 1974.08 724.83 1974.88 727.036C1975.73 729.195 1976.12 731.566 1976.08 734.147L1976.01 737.245H1945.81L1944.19 731.472H1969.74L1968.69 732.668V730.979C1968.54 729.43 1968.03 728.045 1967.14 726.825C1966.25 725.605 1965.12 724.643 1963.76 723.939C1962.4 723.235 1960.92 722.883 1959.32 722.883C1956.79 722.883 1954.65 723.376 1952.92 724.361C1951.18 725.3 1949.87 726.708 1948.97 728.585C1948.08 730.416 1947.64 732.692 1947.64 735.414C1947.64 737.995 1948.18 740.248 1949.26 742.173C1950.33 744.05 1951.86 745.505 1953.83 746.537C1955.8 747.57 1958.08 748.086 1960.66 748.086C1962.49 748.086 1964.18 747.781 1965.73 747.171C1967.32 746.561 1969.04 745.458 1970.87 743.862L1974.53 749.002C1973.4 750.128 1972.02 751.114 1970.38 751.958C1968.78 752.803 1967.07 753.484 1965.24 754C1963.45 754.469 1961.69 754.704 1959.96 754.704ZM1999.66 754.704C1996.23 754.704 1993.16 753.859 1990.44 752.17C1987.76 750.48 1985.62 748.18 1984.03 745.27C1982.48 742.36 1981.71 739.098 1981.71 735.484C1981.71 731.871 1982.48 728.609 1984.03 725.699C1985.62 722.789 1987.76 720.489 1990.44 718.799C1993.16 717.11 1996.23 716.265 1999.66 716.265C2002.94 716.265 2005.92 716.946 2008.6 718.307C2011.32 719.621 2013.39 721.428 2014.79 723.728L2010.78 728.656C2010.03 727.576 2009.07 726.59 2007.89 725.699C2006.72 724.807 2005.48 724.103 2004.16 723.587C2002.85 723.07 2001.58 722.812 2000.36 722.812C1998.11 722.812 1996.09 723.376 1994.31 724.502C1992.57 725.581 1991.19 727.083 1990.15 729.008C1989.12 730.932 1988.6 733.091 1988.6 735.484C1988.6 737.878 1989.14 740.037 1990.22 741.961C1991.3 743.839 1992.74 745.341 1994.52 746.467C1996.3 747.593 1998.27 748.157 2000.43 748.157C2001.7 748.157 2002.92 747.946 2004.09 747.523C2005.31 747.101 2006.49 746.467 2007.61 745.622C2008.74 744.777 2009.8 743.745 2010.78 742.525L2014.79 747.453C2013.29 749.565 2011.13 751.301 2008.32 752.662C2005.55 754.023 2002.66 754.704 1999.66 754.704ZM2028.25 742.454L2027.9 734.569L2045.57 717.039H2055.36L2028.25 742.454ZM2021.63 754V701.903H2028.89V754H2021.63ZM2046.56 754L2032.62 737.737L2037.76 733.02L2055.85 754H2046.56ZM2062.84 754V717.039H2070.1V754H2062.84ZM2066.36 708.873C2064.82 708.873 2063.62 708.474 2062.77 707.676C2061.93 706.878 2061.51 705.752 2061.51 704.297C2061.51 702.936 2061.93 701.833 2062.77 700.988C2063.67 700.143 2064.86 699.721 2066.36 699.721C2067.91 699.721 2069.11 700.12 2069.95 700.918C2070.8 701.715 2071.22 702.842 2071.22 704.297C2071.22 705.658 2070.78 706.761 2069.88 707.606C2069.04 708.45 2067.87 708.873 2066.36 708.873ZM2081.24 754V717.039H2088.49V724.643L2087.23 725.488C2087.69 723.845 2088.61 722.343 2089.97 720.982C2091.33 719.574 2092.95 718.447 2094.83 717.603C2096.71 716.711 2098.63 716.265 2100.6 716.265C2103.42 716.265 2105.76 716.828 2107.64 717.955C2109.52 719.034 2110.93 720.7 2111.87 722.953C2112.8 725.206 2113.27 728.045 2113.27 731.472V754H2106.02V731.964C2106.02 729.852 2105.74 728.116 2105.18 726.755C2104.61 725.347 2103.75 724.338 2102.57 723.728C2101.4 723.07 2099.94 722.789 2098.21 722.883C2096.8 722.883 2095.51 723.117 2094.34 723.587C2093.16 724.009 2092.13 724.619 2091.24 725.417C2090.39 726.215 2089.71 727.154 2089.2 728.233C2088.73 729.266 2088.49 730.392 2088.49 731.612V754H2084.9C2084.29 754 2083.68 754 2083.07 754C2082.46 754 2081.85 754 2081.24 754ZM2139.65 770.192C2137.03 770.192 2134.4 769.77 2131.77 768.925C2129.19 768.127 2127.1 767.071 2125.5 765.757L2128.18 760.125C2129.12 760.829 2130.22 761.439 2131.49 761.955C2132.76 762.519 2134.09 762.941 2135.5 763.223C2136.91 763.551 2138.29 763.715 2139.65 763.715C2142.24 763.715 2144.4 763.293 2146.13 762.448C2147.87 761.603 2149.18 760.36 2150.07 758.717C2150.97 757.074 2151.41 755.033 2151.41 752.592V745.481L2152.19 745.974C2151.95 747.429 2151.18 748.837 2149.86 750.198C2148.6 751.512 2147 752.592 2145.08 753.437C2143.15 754.282 2141.18 754.704 2139.16 754.704C2135.64 754.704 2132.5 753.883 2129.73 752.24C2127.01 750.55 2124.85 748.274 2123.25 745.411C2121.66 742.501 2120.86 739.192 2120.86 735.484C2120.86 731.777 2121.63 728.491 2123.18 725.628C2124.78 722.718 2126.94 720.442 2129.66 718.799C2132.43 717.11 2135.52 716.265 2138.95 716.265C2140.36 716.265 2141.72 716.453 2143.03 716.828C2144.35 717.157 2145.57 717.65 2146.7 718.307C2147.82 718.917 2148.83 719.597 2149.72 720.348C2150.61 721.099 2151.34 721.897 2151.9 722.742C2152.47 723.587 2152.82 724.385 2152.96 725.136L2151.41 725.699V717.039H2158.66V751.747C2158.66 754.704 2158.22 757.309 2157.33 759.562C2156.48 761.861 2155.24 763.786 2153.59 765.335C2151.95 766.93 2149.96 768.127 2147.61 768.925C2145.26 769.77 2142.61 770.192 2139.65 770.192ZM2139.94 748.016C2142.24 748.016 2144.28 747.476 2146.06 746.397C2147.84 745.317 2149.23 743.839 2150.22 741.961C2151.2 740.084 2151.69 737.925 2151.69 735.484C2151.69 733.044 2151.18 730.885 2150.14 729.008C2149.16 727.083 2147.77 725.581 2145.99 724.502C2144.25 723.422 2142.24 722.883 2139.94 722.883C2137.68 722.883 2135.67 723.446 2133.88 724.572C2132.15 725.652 2130.76 727.154 2129.73 729.078C2128.74 730.955 2128.25 733.091 2128.25 735.484C2128.25 737.878 2128.74 740.037 2129.73 741.961C2130.76 743.839 2132.15 745.317 2133.88 746.397C2135.67 747.476 2137.68 748.016 2139.94 748.016ZM2190.39 754V704.719H2221.44V712.041H2198V746.678H2221.44V754H2190.39ZM2193.84 732.387V725.065H2217.57V732.387H2193.84ZM2231.81 754V717.039H2239.06V724.643L2237.79 725.488C2238.26 723.845 2239.17 722.343 2240.54 720.982C2241.9 719.574 2243.52 718.447 2245.39 717.603C2247.27 716.711 2249.2 716.265 2251.17 716.265C2253.98 716.265 2256.33 716.828 2258.21 717.955C2260.08 719.034 2261.49 720.7 2262.43 722.953C2263.37 725.206 2263.84 728.045 2263.84 731.472V754H2256.59V731.964C2256.59 729.852 2256.31 728.116 2255.74 726.755C2255.18 725.347 2254.31 724.338 2253.14 723.728C2251.96 723.07 2250.51 722.789 2248.77 722.883C2247.36 722.883 2246.07 723.117 2244.9 723.587C2243.73 724.009 2242.69 724.619 2241.8 725.417C2240.96 726.215 2240.28 727.154 2239.76 728.233C2239.29 729.266 2239.06 730.392 2239.06 731.612V754H2235.47C2234.86 754 2234.25 754 2233.64 754C2233.03 754 2232.42 754 2231.81 754ZM2290.22 770.192C2287.59 770.192 2284.96 769.77 2282.33 768.925C2279.75 768.127 2277.66 767.071 2276.07 765.757L2278.74 760.125C2279.68 760.829 2280.79 761.439 2282.05 761.955C2283.32 762.519 2284.66 762.941 2286.07 763.223C2287.47 763.551 2288.86 763.715 2290.22 763.715C2292.8 763.715 2294.96 763.293 2296.7 762.448C2298.43 761.603 2299.75 760.36 2300.64 758.717C2301.53 757.074 2301.98 755.033 2301.98 752.592V745.481L2302.75 745.974C2302.52 747.429 2301.74 748.837 2300.43 750.198C2299.16 751.512 2297.57 752.592 2295.64 753.437C2293.72 754.282 2291.75 754.704 2289.73 754.704C2286.21 754.704 2283.06 753.883 2280.29 752.24C2277.57 750.55 2275.41 748.274 2273.82 745.411C2272.22 742.501 2271.42 739.192 2271.42 735.484C2271.42 731.777 2272.2 728.491 2273.75 725.628C2275.34 722.718 2277.5 720.442 2280.22 718.799C2282.99 717.11 2286.09 716.265 2289.52 716.265C2290.92 716.265 2292.28 716.453 2293.6 716.828C2294.91 717.157 2296.13 717.65 2297.26 718.307C2298.39 718.917 2299.4 719.597 2300.29 720.348C2301.18 721.099 2301.91 721.897 2302.47 722.742C2303.03 723.587 2303.38 724.385 2303.53 725.136L2301.98 725.699V717.039H2309.23V751.747C2309.23 754.704 2308.78 757.309 2307.89 759.562C2307.05 761.861 2305.8 763.786 2304.16 765.335C2302.52 766.93 2300.52 768.127 2298.18 768.925C2295.83 769.77 2293.18 770.192 2290.22 770.192ZM2290.5 748.016C2292.8 748.016 2294.84 747.476 2296.63 746.397C2298.41 745.317 2299.79 743.839 2300.78 741.961C2301.77 740.084 2302.26 737.925 2302.26 735.484C2302.26 733.044 2301.74 730.885 2300.71 729.008C2299.72 727.083 2298.34 725.581 2296.56 724.502C2294.82 723.422 2292.8 722.883 2290.5 722.883C2288.25 722.883 2286.23 723.446 2284.45 724.572C2282.71 725.652 2281.33 727.154 2280.29 729.078C2279.31 730.955 2278.81 733.091 2278.81 735.484C2278.81 737.878 2279.31 740.037 2280.29 741.961C2281.33 743.839 2282.71 745.317 2284.45 746.397C2286.23 747.476 2288.25 748.016 2290.5 748.016ZM2320.59 754V717.039H2327.84V754H2320.59ZM2324.11 708.873C2322.56 708.873 2321.37 708.474 2320.52 707.676C2319.68 706.878 2319.25 705.752 2319.25 704.297C2319.25 702.936 2319.68 701.833 2320.52 700.988C2321.41 700.143 2322.61 699.721 2324.11 699.721C2325.66 699.721 2326.86 700.12 2327.7 700.918C2328.55 701.715 2328.97 702.842 2328.97 704.297C2328.97 705.658 2328.52 706.761 2327.63 707.606C2326.79 708.45 2325.61 708.873 2324.11 708.873ZM2338.99 754V717.039H2346.24V724.643L2344.97 725.488C2345.44 723.845 2346.36 722.343 2347.72 720.982C2349.08 719.574 2350.7 718.447 2352.58 717.603C2354.45 716.711 2356.38 716.265 2358.35 716.265C2361.17 716.265 2363.51 716.828 2365.39 717.955C2367.27 719.034 2368.67 720.7 2369.61 722.953C2370.55 725.206 2371.02 728.045 2371.02 731.472V754H2363.77V731.964C2363.77 729.852 2363.49 728.116 2362.93 726.755C2362.36 725.347 2361.49 724.338 2360.32 723.728C2359.15 723.07 2357.69 722.789 2355.96 722.883C2354.55 722.883 2353.26 723.117 2352.08 723.587C2350.91 724.009 2349.88 724.619 2348.99 725.417C2348.14 726.215 2347.46 727.154 2346.94 728.233C2346.48 729.266 2346.24 730.392 2346.24 731.612V754H2342.65C2342.04 754 2341.43 754 2340.82 754C2340.21 754 2339.6 754 2338.99 754ZM2398.11 754.704C2394.31 754.704 2390.93 753.906 2387.97 752.31C2385.06 750.668 2382.76 748.438 2381.07 745.622C2379.43 742.806 2378.61 739.568 2378.61 735.907C2378.61 732.997 2379.08 730.345 2380.01 727.952C2380.95 725.558 2382.24 723.493 2383.89 721.756C2385.58 719.973 2387.57 718.612 2389.87 717.673C2392.22 716.687 2394.75 716.195 2397.47 716.195C2399.87 716.195 2402.1 716.664 2404.16 717.603C2406.23 718.494 2408.01 719.738 2409.51 721.334C2411.06 722.93 2412.23 724.83 2413.03 727.036C2413.88 729.195 2414.28 731.566 2414.23 734.147L2414.16 737.245H2383.96L2382.34 731.472H2407.89L2406.84 732.668V730.979C2406.7 729.43 2406.18 728.045 2405.29 726.825C2404.4 725.605 2403.27 724.643 2401.91 723.939C2400.55 723.235 2399.07 722.883 2397.47 722.883C2394.94 722.883 2392.8 723.376 2391.07 724.361C2389.33 725.3 2388.02 726.708 2387.12 728.585C2386.23 730.416 2385.79 732.692 2385.79 735.414C2385.79 737.995 2386.33 740.248 2387.41 742.173C2388.49 744.05 2390.01 745.505 2391.98 746.537C2393.95 747.57 2396.23 748.086 2398.81 748.086C2400.64 748.086 2402.33 747.781 2403.88 747.171C2405.48 746.561 2407.19 745.458 2409.02 743.862L2412.68 749.002C2411.55 750.128 2410.17 751.114 2408.53 751.958C2406.93 752.803 2405.22 753.484 2403.39 754C2401.6 754.469 2399.84 754.704 2398.11 754.704ZM2458.88 754.704C2456.2 754.704 2453.72 754.352 2451.42 753.648C2449.16 752.944 2447.1 751.888 2445.22 750.48C2443.39 749.025 2441.75 747.241 2440.29 745.129L2445.5 739.145C2447.8 742.431 2450.01 744.707 2452.12 745.974C2454.23 747.241 2456.74 747.875 2459.65 747.875C2461.44 747.875 2463.06 747.593 2464.51 747.03C2465.96 746.467 2467.11 745.693 2467.96 744.707C2468.8 743.721 2469.23 742.595 2469.23 741.328C2469.23 740.483 2469.09 739.685 2468.8 738.934C2468.52 738.183 2468.08 737.503 2467.47 736.893C2466.9 736.282 2466.15 735.719 2465.21 735.203C2464.32 734.687 2463.27 734.241 2462.05 733.865C2460.83 733.443 2459.42 733.091 2457.82 732.809C2455.29 732.293 2453.08 731.612 2451.2 730.768C2449.33 729.923 2447.75 728.867 2446.49 727.6C2445.22 726.332 2444.28 724.901 2443.67 723.305C2443.06 721.662 2442.76 719.832 2442.76 717.814C2442.76 715.843 2443.18 714.012 2444.02 712.323C2444.92 710.633 2446.11 709.178 2447.61 707.958C2449.16 706.69 2450.97 705.728 2453.03 705.071C2455.1 704.367 2457.33 704.015 2459.72 704.015C2462.26 704.015 2464.58 704.344 2466.69 705.001C2468.8 705.658 2470.68 706.643 2472.32 707.958C2473.97 709.225 2475.33 710.797 2476.41 712.675L2471.06 717.955C2470.12 716.406 2469.06 715.115 2467.89 714.083C2466.72 713.003 2465.43 712.205 2464.02 711.689C2462.61 711.126 2461.11 710.844 2459.51 710.844C2457.68 710.844 2456.09 711.126 2454.72 711.689C2453.36 712.252 2452.28 713.05 2451.49 714.083C2450.73 715.068 2450.36 716.242 2450.36 717.603C2450.36 718.588 2450.55 719.503 2450.92 720.348C2451.3 721.146 2451.86 721.874 2452.61 722.531C2453.41 723.141 2454.47 723.704 2455.78 724.22C2457.09 724.69 2458.67 725.112 2460.5 725.488C2463.08 726.051 2465.38 726.778 2467.4 727.67C2469.41 728.515 2471.13 729.524 2472.54 730.697C2473.94 731.871 2475 733.185 2475.7 734.64C2476.45 736.095 2476.83 737.667 2476.83 739.357C2476.83 742.501 2476.1 745.223 2474.65 747.523C2473.19 749.823 2471.13 751.606 2468.45 752.874C2465.78 754.094 2462.59 754.704 2458.88 754.704ZM2491.97 770.192L2499.43 752.944L2499.5 758.717L2481.06 717.039H2489.5L2501.05 744.214C2501.28 744.684 2501.57 745.411 2501.89 746.397C2502.22 747.335 2502.5 748.274 2502.74 749.213L2500.91 749.635C2501.28 748.65 2501.64 747.664 2501.97 746.678C2502.34 745.693 2502.69 744.707 2503.02 743.721L2512.67 717.039H2521.25L2506.05 754L2499.78 770.192H2491.97ZM2538.31 754.704C2535.21 754.704 2532.42 754.164 2529.93 753.085C2527.45 752.005 2525.38 750.41 2523.74 748.298L2528.67 744.073C2530.08 745.716 2531.6 746.913 2533.24 747.664C2534.93 748.368 2536.83 748.72 2538.95 748.72C2539.79 748.72 2540.57 748.626 2541.27 748.438C2542.02 748.204 2542.65 747.875 2543.17 747.453C2543.73 747.03 2544.16 746.537 2544.44 745.974C2544.72 745.364 2544.86 744.707 2544.86 744.003C2544.86 742.783 2544.41 741.797 2543.52 741.046C2543.05 740.718 2542.3 740.366 2541.27 739.99C2540.28 739.568 2538.99 739.145 2537.4 738.723C2534.68 738.019 2532.45 737.221 2530.71 736.329C2528.97 735.438 2527.63 734.428 2526.7 733.302C2525.99 732.41 2525.48 731.448 2525.15 730.416C2524.82 729.336 2524.65 728.163 2524.65 726.896C2524.65 725.347 2524.98 723.939 2525.64 722.671C2526.34 721.357 2527.28 720.231 2528.46 719.292C2529.68 718.307 2531.08 717.556 2532.68 717.039C2534.32 716.523 2536.06 716.265 2537.89 716.265C2539.63 716.265 2541.34 716.5 2543.03 716.969C2544.77 717.438 2546.36 718.119 2547.82 719.011C2549.27 719.902 2550.49 720.958 2551.48 722.179L2547.32 726.755C2546.43 725.863 2545.45 725.089 2544.37 724.432C2543.33 723.728 2542.28 723.188 2541.2 722.812C2540.12 722.437 2539.13 722.249 2538.24 722.249C2537.26 722.249 2536.36 722.343 2535.57 722.531C2534.77 722.718 2534.09 723 2533.53 723.376C2533.01 723.751 2532.61 724.22 2532.33 724.784C2532.05 725.347 2531.91 725.98 2531.91 726.684C2531.95 727.294 2532.09 727.881 2532.33 728.444C2532.61 728.961 2532.99 729.407 2533.45 729.782C2533.97 730.157 2534.75 730.556 2535.78 730.979C2536.81 731.401 2538.12 731.8 2539.72 732.176C2542.07 732.786 2543.99 733.466 2545.49 734.217C2547.04 734.921 2548.26 735.743 2549.15 736.681C2550.09 737.573 2550.75 738.606 2551.13 739.779C2551.5 740.952 2551.69 742.266 2551.69 743.721C2551.69 745.833 2551.08 747.734 2549.86 749.424C2548.68 751.067 2547.09 752.357 2545.07 753.296C2543.05 754.235 2540.8 754.704 2538.31 754.704ZM2564.26 754V707.606H2571.51V754H2564.26ZM2556.58 724.08V717.039H2580.1V724.08H2556.58ZM2603.6 754.704C2599.8 754.704 2596.42 753.906 2593.47 752.31C2590.56 750.668 2588.26 748.438 2586.57 745.622C2584.92 742.806 2584.1 739.568 2584.1 735.907C2584.1 732.997 2584.57 730.345 2585.51 727.952C2586.45 725.558 2587.74 723.493 2589.38 721.756C2591.07 719.973 2593.07 718.612 2595.37 717.673C2597.71 716.687 2600.25 716.195 2602.97 716.195C2605.36 716.195 2607.59 716.664 2609.66 717.603C2611.72 718.494 2613.51 719.738 2615.01 721.334C2616.56 722.93 2617.73 724.83 2618.53 727.036C2619.37 729.195 2619.77 731.566 2619.73 734.147L2619.66 737.245H2589.45L2587.83 731.472H2613.39L2612.33 732.668V730.979C2612.19 729.43 2611.68 728.045 2610.78 726.825C2609.89 725.605 2608.77 724.643 2607.41 723.939C2606.04 723.235 2604.57 722.883 2602.97 722.883C2600.44 722.883 2598.3 723.376 2596.56 724.361C2594.83 725.3 2593.51 726.708 2592.62 728.585C2591.73 730.416 2591.28 732.692 2591.28 735.414C2591.28 737.995 2591.82 740.248 2592.9 742.173C2593.98 744.05 2595.51 745.505 2597.48 746.537C2599.45 747.57 2601.73 748.086 2604.31 748.086C2606.14 748.086 2607.83 747.781 2609.38 747.171C2610.97 746.561 2612.69 745.458 2614.52 743.862L2618.18 749.002C2617.05 750.128 2615.67 751.114 2614.02 751.958C2612.43 752.803 2610.71 753.484 2608.88 754C2607.1 754.469 2605.34 754.704 2603.6 754.704ZM2627.47 754V717.039H2634.79V724.924L2633.45 725.769C2633.83 724.549 2634.41 723.376 2635.21 722.249C2636.05 721.123 2637.06 720.137 2638.24 719.292C2639.46 718.4 2640.75 717.696 2642.11 717.18C2643.52 716.664 2644.95 716.406 2646.4 716.406C2648.52 716.406 2650.37 716.758 2651.97 717.462C2653.56 718.166 2654.88 719.222 2655.91 720.63C2656.94 722.038 2657.69 723.798 2658.16 725.91L2657.03 725.628L2657.53 724.432C2658.04 723.352 2658.75 722.343 2659.64 721.404C2660.58 720.419 2661.63 719.55 2662.81 718.799C2663.98 718.048 2665.22 717.462 2666.54 717.039C2667.85 716.617 2669.14 716.406 2670.41 716.406C2673.18 716.406 2675.46 716.969 2677.24 718.095C2679.07 719.222 2680.43 720.935 2681.32 723.235C2682.26 725.534 2682.73 728.397 2682.73 731.824V754H2675.41V732.246C2675.41 730.134 2675.13 728.421 2674.56 727.107C2674.05 725.746 2673.25 724.737 2672.17 724.08C2671.09 723.422 2669.71 723.094 2668.02 723.094C2666.7 723.094 2665.46 723.329 2664.29 723.798C2663.16 724.22 2662.17 724.83 2661.33 725.628C2660.48 726.426 2659.83 727.365 2659.36 728.444C2658.89 729.477 2658.65 730.627 2658.65 731.894V754H2651.33V732.105C2651.33 730.181 2651.05 728.562 2650.49 727.248C2649.92 725.886 2649.1 724.854 2648.02 724.15C2646.94 723.446 2645.63 723.094 2644.08 723.094C2642.77 723.094 2641.55 723.329 2640.42 723.798C2639.29 724.22 2638.31 724.83 2637.46 725.628C2636.62 726.379 2635.96 727.294 2635.49 728.374C2635.02 729.407 2634.79 730.533 2634.79 731.753V754H2627.47Z" fill="black"/>
<path d="M1081 645L2696 645" stroke="black" stroke-width="13"/>
<defs>
<linearGradient id="paint0_linear_306_103" x1="565" y1="123" x2="565" y2="390.5" gradientUnits="userSpaceOnUse">
<stop stop-color="#A52A80"/>
<stop offset="1" stop-color="#5B48D2"/>
</linearGradient>
<linearGradient id="paint1_linear_306_103" x1="197.25" y1="285.428" x2="428.912" y2="419.178" gradientUnits="userSpaceOnUse">
<stop stop-color="#A52A80"/>
<stop offset="1" stop-color="#5B48D2"/>
</linearGradient>
<linearGradient id="paint2_linear_306_103" x1="155.25" y1="690.178" x2="386.912" y2="556.428" gradientUnits="userSpaceOnUse">
<stop stop-color="#A52A80"/>
<stop offset="1" stop-color="#5B48D2"/>
</linearGradient>
<linearGradient id="paint3_linear_306_103" x1="484.5" y1="925.5" x2="484.5" y2="658" gradientUnits="userSpaceOnUse">
<stop stop-color="#A52A80"/>
<stop offset="1" stop-color="#5B48D2"/>
</linearGradient>
<linearGradient id="paint4_linear_306_103" x1="852.912" y1="763.178" x2="621.25" y2="629.428" gradientUnits="userSpaceOnUse">
<stop stop-color="#A52A80"/>
<stop offset="1" stop-color="#5B48D2"/>
</linearGradient>
<linearGradient id="paint5_linear_306_103" x1="894.912" y1="356.428" x2="663.25" y2="490.178" gradientUnits="userSpaceOnUse">
<stop stop-color="#A52A80"/>
<stop offset="1" stop-color="#5B48D2"/>
</linearGradient>
</defs>
</svg>
