<svg width="696" height="800" viewBox="0 0 696 800" fill="none" xmlns="http://www.w3.org/2000/svg">
<g clip-path="url(#clip0_307_8)">
<path d="M346 -1L274.5 191L346 253.5V-1Z" fill="#1358AA"/>
<path d="M346 -1V253.5C375.583 242.543 402.506 225.973 425.5 208.131L346 -1Z" fill="url(#paint0_linear_307_8)"/>
<path d="M346 253.5L359 266.5C390.5 255 462.7 212 499.5 132C487.529 149.551 461.269 180.378 425.5 208.131C402.506 225.973 375.583 242.543 346 253.5Z" fill="#1358AA"/>
<path d="M346 -1L274.5 191L346 253.5M346 -1V253.5M346 -1L425.5 208.131M346 253.5L359 266.5C390.5 255 462.7 212 499.5 132C487.529 149.551 461.269 180.378 425.5 208.131M346 253.5C375.583 242.543 402.506 225.973 425.5 208.131" stroke="white"/>
<path d="M-1.25 196.935L129.277 354.856L219.153 324.185L-1.25 196.935Z" fill="#1358AA"/>
<path d="M-1.25 196.935L219.153 324.185C224.456 293.087 223.567 261.486 219.613 232.652L-1.25 196.935Z" fill="url(#paint1_linear_307_8)"/>
<path d="M219.153 324.185L236.912 319.427C242.703 286.397 241.563 202.37 190.681 130.5C199.895 149.643 213.462 187.798 219.613 232.652C223.567 261.486 224.456 293.087 219.153 324.185Z" fill="#1358AA"/>
<path d="M-1.25 196.935L129.277 354.856L219.153 324.185M-1.25 196.935L219.153 324.185M-1.25 196.935L219.613 232.652M219.153 324.185L236.912 319.427C242.703 286.397 241.563 202.37 190.681 130.5C199.895 149.643 213.462 187.798 219.613 232.652M219.153 324.185C224.456 293.087 223.567 261.486 219.613 232.652" stroke="white"/>
<path d="M-2.25 601.685L199.777 567.606L218.153 474.435L-2.25 601.685Z" fill="#1358AA"/>
<path d="M-2.25 601.685L218.153 474.435C193.874 454.294 166.061 439.263 139.113 428.27L-2.25 601.685Z" fill="url(#paint2_linear_307_8)"/>
<path d="M218.153 474.435L222.912 456.677C197.202 435.147 123.863 394.12 36.1814 402.25C57.3663 403.842 97.1938 411.17 139.113 428.27C166.061 439.263 193.874 454.294 218.153 474.435Z" fill="#1358AA"/>
<path d="M-2.25 601.685L199.777 567.606L218.153 474.435M-2.25 601.685L218.153 474.435M-2.25 601.685L139.113 428.27M218.153 474.435L222.912 456.677C197.202 435.147 123.863 394.12 36.1814 402.25C57.3663 403.842 97.1938 411.17 139.113 428.27M218.153 474.435C193.874 454.294 166.061 439.263 139.113 428.27" stroke="white"/>
<path d="M347.5 801.5L419 609.5L347.5 547L347.5 801.5Z" fill="#1358AA"/>
<path d="M347.5 801.5L347.5 547C317.917 557.957 290.994 574.527 268 592.369L347.5 801.5Z" fill="url(#paint3_linear_307_8)"/>
<path d="M347.5 547L334.5 534C303 545.5 230.8 588.5 194 668.5C205.971 650.949 232.231 620.122 268 592.369C290.994 574.527 317.917 557.957 347.5 547Z" fill="#1358AA"/>
<path d="M347.5 801.5L419 609.5L347.5 547M347.5 801.5L347.5 547M347.5 801.5L268 592.369M347.5 547L334.5 534C303 545.5 230.8 588.5 194 668.5C205.971 650.949 232.231 620.122 268 592.369M347.5 547C317.917 557.957 290.994 574.527 268 592.369" stroke="white"/>
<path d="M695.412 603.671L564.885 445.75L475.008 476.421L695.412 603.671Z" fill="#1358AA"/>
<path d="M695.412 603.671L475.008 476.421C469.705 507.518 470.595 539.12 474.549 567.954L695.412 603.671Z" fill="url(#paint4_linear_307_8)"/>
<path d="M475.008 476.421L457.25 481.179C451.459 514.209 452.598 598.236 503.48 670.106C494.266 650.963 480.699 612.807 474.549 567.954C470.595 539.12 469.705 507.518 475.008 476.421Z" fill="#1358AA"/>
<path d="M695.412 603.671L564.885 445.75L475.008 476.421M695.412 603.671L475.008 476.421M695.412 603.671L474.549 567.954M475.008 476.421L457.25 481.179C451.459 514.209 452.598 598.236 503.48 670.106C494.266 650.963 480.699 612.807 474.549 567.954M475.008 476.421C469.705 507.518 470.595 539.12 474.549 567.954" stroke="white"/>
<path d="M696.412 196.921L494.385 231L476.009 324.171L696.412 196.921Z" fill="#1358AA"/>
<path d="M696.412 196.921L476.009 324.171C500.289 344.312 528.101 359.343 555.049 370.336L696.412 196.921Z" fill="url(#paint5_linear_307_8)"/>
<path d="M476.009 324.171L471.25 341.929C496.96 363.459 570.299 404.486 657.981 396.356C636.796 394.764 596.968 387.435 555.049 370.336C528.101 359.343 500.289 344.312 476.009 324.171Z" fill="#1358AA"/>
<path d="M696.412 196.921L494.385 231L476.009 324.171M696.412 196.921L476.009 324.171M696.412 196.921L555.049 370.336M476.009 324.171L471.25 341.929C496.96 363.459 570.299 404.486 657.981 396.356C636.796 394.764 596.968 387.435 555.049 370.336M476.009 324.171C500.289 344.312 528.101 359.343 555.049 370.336" stroke="white"/>
</g>
<defs>
<linearGradient id="paint0_linear_307_8" x1="387" y1="-1" x2="387" y2="266.5" gradientUnits="userSpaceOnUse">
<stop stop-color="#A52A80"/>
<stop offset="1" stop-color="#5B48D2"/>
</linearGradient>
<linearGradient id="paint1_linear_307_8" x1="19.25" y1="161.428" x2="250.912" y2="295.178" gradientUnits="userSpaceOnUse">
<stop stop-color="#A52A80"/>
<stop offset="1" stop-color="#5B48D2"/>
</linearGradient>
<linearGradient id="paint2_linear_307_8" x1="-22.75" y1="566.178" x2="208.912" y2="432.428" gradientUnits="userSpaceOnUse">
<stop stop-color="#A52A80"/>
<stop offset="1" stop-color="#5B48D2"/>
</linearGradient>
<linearGradient id="paint3_linear_307_8" x1="306.5" y1="801.5" x2="306.5" y2="534" gradientUnits="userSpaceOnUse">
<stop stop-color="#A52A80"/>
<stop offset="1" stop-color="#5B48D2"/>
</linearGradient>
<linearGradient id="paint4_linear_307_8" x1="674.912" y1="639.178" x2="443.25" y2="505.428" gradientUnits="userSpaceOnUse">
<stop stop-color="#A52A80"/>
<stop offset="1" stop-color="#5B48D2"/>
</linearGradient>
<linearGradient id="paint5_linear_307_8" x1="716.912" y1="232.428" x2="485.25" y2="366.178" gradientUnits="userSpaceOnUse">
<stop stop-color="#A52A80"/>
<stop offset="1" stop-color="#5B48D2"/>
</linearGradient>
<clipPath id="clip0_307_8">
<rect width="696" height="800" fill="white"/>
</clipPath>
</defs>
</svg>
